<mxfile host="app.diagrams.net" agent="Mozilla/5.0 (Macintosh; Intel Mac OS X 10_15_7) AppleWebKit/537.36 (KHTML, like Gecko) Chrome/138.0.0.0 Safari/537.36" version="27.2.0">
  <diagram name="第 1 页" id="ahevlSqSITwXDZhsicTR">
    <mxGraphModel dx="1234" dy="770" grid="1" gridSize="10" guides="1" tooltips="1" connect="1" arrows="1" fold="1" page="1" pageScale="1" pageWidth="827" pageHeight="1169" math="0" shadow="0">
      <root>
        <mxCell id="0" />
        <mxCell id="1" parent="0" />
        <mxCell id="vWYHXzRiQ3g4LQAD42oX-2" value="" style="shape=image;verticalLabelPosition=bottom;labelBackgroundColor=default;verticalAlign=top;aspect=fixed;imageAspect=0;image=data:image/png,iVBORw0KGgoAAAANSUhEUgAAAOEAAADhCAYAAAA+s9J6AAABdWlDQ1BrQ0dDb2xvclNwYWNlRGlzcGxheVAzAAAokXWQvUvDUBTFT6tS0DqIDh0cMolD1NIKdnFoKxRFMFQFq1OafgltfCQpUnETVyn4H1jBWXCwiFRwcXAQRAcR3Zw6KbhoeN6XVNoi3sfl/Ticc7lcwBtQGSv2AijplpFMxKS11Lrke4OHnlOqZrKooiwK/v276/PR9d5PiFlNu3YQ2U9cl84ul3aeAlN//V3Vn8maGv3f1EGNGRbgkYmVbYsJ3iUeMWgp4qrgvMvHgtMunzuelWSc+JZY0gpqhrhJLKc79HwHl4plrbWD2N6f1VeXxRzqUcxhEyYYilBRgQQF4X/8044/ji1yV2BQLo8CLMpESRETssTz0KFhEjJxCEHqkLhz634PrfvJbW3vFZhtcM4v2tpCAzidoZPV29p4BBgaAG7qTDVUR+qh9uZywPsJMJgChu8os2HmwiF3e38M6Hvh/GMM8B0CdpXzryPO7RqFn4Er/QcXKWq8UwZBywAAAARjSUNQDA0AAW4D4+8AAAA4ZVhJZk1NACoAAAAIAAGHaQAEAAAAAQAAABoAAAAAAAKgAgAEAAAAAQAAAOGgAwAEAAAAAQAAAOEAAAAAO1fk/QAAJRRJREFUeAHtXQmQHMWV/V09PacOxGGwAHPqAIGQQLDmlEAcQmtYMLuYsCE27HCEvV7sJZbwboRjI7xrb8TCRtiAA9tgr83aBgfHAuawLhAgEPchIRDoQBIgSyAk0Dnd02ftf9ldo56equ7MnqqZyumfoVF3V2Vl/nw/Xx4/f2YlXA4UQXALRSr1pim3ei3lN2yg4vpNVNq8ldy9O4lyeXLTvUSlYgQ5S5KCQBMIOElKdPcQtacoMXYCOUdOpOSkYyh13HHUPm0KOT3dlGhLNpFw40cSYZHQI11p9x7KLF5K+WUvUGnjWiZcH1FnN5HjECX4z0mUpcJ3CYJAnBBwS2VpStwvoYNA/9SXZmJ2knPsFErNPou6LplLzvhxoZIyFBLmP9zCPd4ayi56koor3yDK54hS7WXCCdniVM1ElmYQADlBzEq9Ts44lTrmXcg95FRKfeHwZlIc8MyQSAjy9b34OuWWPEGl9WvKLUdbW7nHG5CN/BAERgkCIGShwHU8Qc6kqdR+8UXUeeZpQyJjUyTE0DP9xDOUXbCIiqtWMflYsCSPl6XXGyU1TYrREAHU+SIPWbnOJ6dPp47586j7ojlNzRuNSZjfspV6776fCk8/S27vHiLp+RrqSyKMYgQqPWOiZxy1nX8e9Vx7NaUOn2hUYCMSZl5dQek7fkul99bJfM8IZok86hEAGXne6Bw/mbq//Q3qOn2mdpG1Sdi7cCmlf3JreXIKC6cMPbVBlogtgkCFiDBKdt94A/VcOler4A1JiPlf72MLKHPr7eUEMfeTIAgIAsEIYK7IoeuG66nnsvkN54kNF+sUAdEDovcTAgYDL3cEAQ8B8IT5kmHegD+NQl0SYgiqesBUSoafjZCU+4JANQKYrjFvwB/wqF4IJKEywqAHRJD5XxkH+V8QMEGgwhvYUsCnoOBLQixDwAqqXM5kCBqEnVwXBBojAP6w6yb4BF75hUEkVIYYXgdUyxBCQD/M5JogYIYA8wh8wvo6+FUbBpEQnjBYiFeGGBmG1uIlvwUBcwTAIzbUgFfgV20YQEL4gsIVTXnCCAFrsZLfgkDzCDCfwCvwCzyrDgNICGds5QsKVzQJgoAgEC4CzCvwCzyrDv0kVNuReDeEcsaWXrAaI/kuCISDAHjFXjXYdVTdGyoSYrKI/YBqO5IYY8IBXFIRBPwQgJGGt/2Bb56RRpEQx1BgQ67aSSy9oB90ck0QCAcB1Ru6im/gHUKZhHwkhdoRL3PBcICWVASBeghgbsgnUOAoGARFQpwJo7buSy9YDzq5JwiEgwB4xkdlKN5xig7GpTiUSZ0JE04WkoogIAg0QoC3O4F34J+Dcak6FQ27JCQIAoLA8CDAfAPvwD8H54IqH1EZig4P+JKLIAAEwDf2KQX/HBzMq84FFWgEAUFgeBHg83jBPwcnY+P4NgmCgCAwzAgw78A/B0fTEx8BLkEQEASGGQHmHfjnqHdDiFFmmNGX7AQBRoB5B/45eDmLBEFAEBghBJh/jno7klhGR0gDkm1LI8C8A/8ceT1ZS1cDKfxII8Bvf1JuayMth+QvCLQyAkLCVta+lD0WCAgJY6EGEaKVERAStrL2peyxQEBIGAs1iBCtjICQsJW1L2WPBQJCwlioQYRoZQSEhK2sfSl7LBAQEsZCDSJEKyMgJGxl7UvZY4GAkDAWahAhWhkBIWEra1/KHgsEhISxUIMI0coICAlbWftS9lggICSMhRpEiFZGQEjYytqXsscCASFhLNQgQrQyAkLCVta+lD0WCAgJY6EGEaKVERAStrL2peyxQEBIGAs1iBCtjICQsJW1L2WPBQJCwlioQYRoZQSEhK2sfSl7LBAQEsZCDSJEKyMgJGxl7UvZY4GAkDAWahAhWhkBIWEra1/KHgsEhISxUIMI0coICAlbWftS9lggICSMhRpEiFZGQEjYytqXsscCASFhLNQgQrQyAkLCVta+lD0WCAgJY6EGEaKVERAStrL2peyxQEBIGAs1iBCtjICQsJW1L2WPBQJCwlioQYRoZQSEhK2sfSl7LBAQEsZCDSJEKyMgJGxl7UvZY4GAkDAWahAhWhkBIWEra1/KHgsEhISxUIMI0coICAlbWftS9lgg0BYLKVpNiEKeqFTSL7XDbWVbSj9+3GOi/K6rL6WTJEry3ygNdpHQ5YqbN6jAqLwprryJGHX4uSwlTzuDnKOO1qpSiXaHius3UvGtN7Xixz4SEzA5cxYlDjxQT9RikUqbt1Jp49pRS0R7SAgCcuj87j+RM65HS4GlPb2UfeABcrd/Eg8FcoVKHHgITbj53ynR2aFVBkTaffuvqfj6K0Tt+s9oJz7cEQsF6vmHr1PH1MnaOfcuXErpH/8n67BL+xmbItpDQvRmXIm7551PyfFjtTAu7t5L+eXPUfGTjzl+DIYz+Ry1/92VPLTUh73vzbcp/8yzLL7+M1rgjGAkN5vTzt0tFMntS2vHtzHi6NFs3NHnnjxx8KHUNfscSrTpNQiogPm33yF36194CKDRC1RGC8MCRb0hfj05cn3NixeUbj1ZTHNDHiWerzqJ8pNhph0gi5AwAJjQL2ezlLpqLjnjx2knXdi2jXILn+J5bXvDZxLtnQ3jhBXBVYalon9yqMTJFDc0/oYkFxXcIKDBSnR2E3V0UKKDP2uCm+Vesi9TvgrjDUYZzRAHcrOOVD6HfI5tDyVyd+1gQnKv3WyaNbIG/RQSBiET5nVWcGLcBGqfdZr2UBrZ51a9WzZI1OsFeYjuHHkMdX3zWnImHBCm1IFp5Vatptw995Fb26tVCNj59esoddKJvs+7uTyljj7K917QxY5Zp5Dz3/9FifbBxEZ6lC9ScdtHlF+1hufOr5O7Y1u54dK1qPI0ITHhYGr/6nxqP+NUJnu50St+/Alln1pOheU8HUDZmiF3UKGqrgsJq8CI7CtbdJNzzqT2EyZpZ+H2Zanv/kcazx9B8IOY4NOmUtshB2unP5SIbm8f5dq5oqIXqqmY6AHbJk+izlNOGkoWA55FuRqVDUP30gVzqLSP7QBsTc78z91UWsMW5bHjB8k4IHG2VjtTTqSe732LOqZMGmgwY+NRx8xTKDNrBmVu/VlkRBQSDtBIRD94OJWaebJRL9i3cjWV1r6lNxcsFSIS3J5kMWyFwQ5/qcMnlsmz7HnK/OznPFzlxsJvqYqH1c7Rk2jM978baK1FemMun0duJkd9t92ipw9D2GK0gGYouS3RsS427STqPHOWkcTp23/VuBc0SrG1InvkOeB3d6p1WVjW1ZDSgwHDS+61O66+IpCAXlR8jv3K5ZTgYb9Kp/pGCN+FhCGAGJgEFM0Gk9QZMxsOp6rTyK5ZVx5KBRg3quPK9/oIoFcc9283UvLsc8tWT+gEgQ1EzjHHUWryseXfGv93fu1qnn/qL69oJKmitAYJa+YtuuAMOR4UfcTh1Hnu2UZJ9f7uXqIuPYcEo4RbNDLmkz1/fw05x7ODgGedxVz6c4dQ8iBNzx3GTo1mao1RIWDaGiQMASjjJNDi8lpTG1tEU184XPvx/IdbqPjySzIU1UZMLyI8dDr/9ory+h90w767zgHjKDlWz/EDuSSUx1KlJ9XLViuWkFALpuYiYV2r+/L5Rg/3/t/j5XnHSPXeRtLaFbnn0rmUPOnk/b2hofj59z/gJ8KnTPgpGhZs1EZnH0ln5gzjXrDw8sujFpI4FKxj/rym53V9S5bxmHSww8BQy2UdCZ3KQqpOwU3i6qRnFCezV81DTJ7JLFtO7qfb97tMmTwscbUQQG/YTChs30H5hX8uL3U0k0CdZ6InIcbfJn91hI3klolsiKsTsP40daaW6dtLDkouvPIaL4BXXLAayeU9KJ/GCDhTMCSt6FLDmT6/ZSvtuv5fiOCuF8E0IfrFevYjNArFaArqKwMquql8pQCfyeoMeCja/Z1vVl9p+L346Wfkptm5GX6i2MSKoJNXOSa7kOUIXiN+QddhvPrZoLQQZ5C7WvWD+M5uZPWeD1OeZtJqO+1kyr31qpK61JsmvxFTqbLTI7d6LfXe9gtyP96i1hVrixrG7+hIyBUcG1fbL53PSqu07nUkTrAlsbhtJ+UfeWj4dh0xWVLz5lHyiIncWTd2LIaM+VdWUHEF91hBa3joBbml7TyVW1uD0H78cdR13VeosJmVXRvYha0/YB8i/849toDcfXsYqySVPvqY0g//mX1Hx/uWo336NCM3MmwB63vhFSruYAfmmgAMCu+xgYJJ7xfg3J19jv0teSMuFQbvmEh0d1HnOWdqr5uCzNnV77If7WqVHfL3dIXvbcccyy57U4y8kZxDDlXrt4U3VtHeX/2eMRxMA3fXTiquXUfuFi4r7uv6ofqB0uDa4NwbPKB9myt18oSpytNA9xksUucfur88J4qg2x8kB3tRdFwwm7pOnznoVtCFfVyJMthg6xfQszKxO6/+m4E+iH5xa66hRe+ec07NVf+fGLpm73ug35cR88jcvby26A2xqh/LscvWt/6ROqadoL2FqrR7D2UXLKLii8tVZa1OTn0P2q0AnfFIJv/449wZ+vfKlNtNyV/+RpuEwDP3yhuUvZPdz9p9jCI8cui64Xoac+Vlg8QMuuBtCkfvln8EFk+fkEiURyR+7m4+0YdyKToSsqISPWYLzvBaV2E4CFhBrbTjM3P80DKCcLVycsVDLwiv/yjDvj88SJTet9+PEXLU23VvsIu/X26Hy9g9JrjH749Y8wWyYEgdNAtpZrEb8oOAfrtJeBtTYd0GQu8NVzWd4Ixnp24ENCYR9nDlTBr/z4hFEFBBOSR4D5hJKO3hioUWaBiD35CrbvaYQ6KS+QVutTsuv4iSEyb43Q3lGnZX5B97WO17CyVB2xPBOUKmAc800xiY5qMZv4kS6KbMPeE4s/1tpd27h5eErIzS9l2aBSpHS/DwxHfDKveCcPBNnTBFe9hnlHEl8r5HFpc3n9b2ws0kZskzmPuN5hANCbmCoKImugJ6jABETQkRkIz+Ze51MQE3CYku7t07fI6aKBao7dTp1Pb5z5skZxwXB1cF9sTGqVnwgMYSggWlqCtiNCSsDEedcTynMAjuXrb2DWcLDxKi9zUIap6LOUq1NRXl5TlZarrZnkGDbFXUfQ8/Ru5nn8pivilwMY8fDQlRaN55bXrcgvsZG0kqBA7ELcyWkQnvfmrWEzpjeygxZrDBKXHgQVzeCOeCbKrPPfNCa/qVtnUGVofRcCM6EjI6pgYKdx8MM5GKNFBnWHPaUbHIDrwT+MvpZhJ2c6WobSz4YCDfJYLAlMxuZJa/SKVNm1qyF0y0y5zQrLYgNoZqfCiPmj+ZPA1vmWEObqbXKEdVJpjvqwN6VD6Zq7BpY/XV0L5jwTr38ms8dOZeezgbKZMSoFHS+TNJM6q4yXiRuqY2hVtqk54QFQ3neAxrQIXuNRuOqj1lvGDv9y6F7KOLlAdH11mzQi0GPEbg3RHb4B05qCmg36lpDR/lRX61rFB7tCOcEZoK3GhAbixVeGliqhPkCdVUHnoPRUdCdfZkxQdSQ5biTibDCPSE3G3zCc9ZbQ8Xp6eb4/pYR3nRFx4YvT+9jbLPf5E6zi2frqa7gFwPIrhsuR9tHpEKUk8udY8r8pjbfkptE9kVTDO0HXSQZkzu+NmTqOuCOdRxxuOBzyTY/mCCc+fJJ1LbIw+r9IrsrFHcuo2Kf2HvmZdepdKb7JKI7UrD4CnjFSgyEvoZL7xM/T7dDPtHYl417MGhwic7tPf9oVIkOnnB3u+tQiAiv/civ+Axyi9eNHA9kSuKm+6ltnPPowP+9XvapFeufM8sH3ZUtDPknqR98vFGJNBOuxIRBDMhWaP08R4QnD2DoD4rxzO6X/8aoTPY+4u7qLB0Cd9l1zt41EQ8BYjGCsJzg8QYs+UJ1RO6XOgRWJhVeSuV6P2nlil8nH7V057SeAcETofu/8N8jl3Nuq64VJuASC+/biOV3n07nr2gKjCPJPjsztEQ0MDiPJoJP/w+HXD3/xLeHqVCrREu5MJGQ0IWUvvVV5UC4UDZIM/8kMs8MDmeD5R2GnrNwB0PZGukHLSg3h/HTZ7+RR62HTYw/zq/sI8t98TS1lqcr4PHcN7CuUDjf/QDar/qKtY1Rj7RjdKiISEP1RJj9d+5AHCVyxq+RNz1I4vaUNxm6MSNxXpvz19tYn6/oUAuV/vc2fq7BzgdnCRdXPHGiIwO/IrRatcwBB5z3TWUumhuuegRETEaErLIzlgf40UdLeJdgupFI3XiRHXL3WPWEzpj2DgDK5pug4HdFcdPNjrjUh2Dz3sElUO7bj5RAdTC6SoifuNaPh6R55DVXlIhYhINCdETGjpvKyJgJ3lErU0gZnDi3rU38LbfDfWWIDa0mMia+uLphI27uiG7dj0V33iV54KR2c50RWn5eJgndl5zJdtponndQDQkZLUlD9U/VBVadvFaKo2AyXOogf1HS/DHNAhqwT6hKQd2V3z+SErNOFmZ23WzSd/7EIPCTg/SC+pCFmk8tWkYyxYRdBLRkJB3eJtu6HV72XOFK+ywVzrsX+Q3+ZgEVbYUQ6czPOHeHbsrOmdO184CO+eLy54ur1VpPyURo0YgOX1muY6GnFE0JGQh2w79nJGoyjoaQSvTUAjuaUqfmPWEcOLWOiCKy6Pee/dXs4x6QaxT9QdgUvvXf1O+DCcCHfMuVMeXhJ1n+BOOCpFM3kiLQrl40YbfAnjYJfZLL2Pm+oT3F2CvJA8W6wfuKZ1j+AWefLCRScBuErxUFDtR/IK7lw1JMRqmlo+H95N0dF1LwisIbm5+HlNDKGr4JKwIY+LhAEsgpdmPD0PD4Q7YScGeLCZBVbr+taOAuSEaI15LxLKE6Tx27I3XU3blW4Rd/LUBx3Fkf3lH6BWhNh/93zyS4OE89F3vmMPq9EzxwLO6aVfn4/e9mby9dJIHm9k5vOcafYZPQrTQhha94l6ek43wiy5NDgpChVPbmer1RtwLJg47jHouPr+RDgbdx0Jx0Etk9t736KD4I3qB/Sy94xZ15MBxhd3z5hqtl8J1L/vqCu789zfSSMf77R2B2Ch/xMf6ddtRRxidPuelW/Z5DX/RPnwScg+Q6NY79corXP/Bt/UqtRc57M9Knjjmz6T3ptrtTLVy8fC6/cI5Ri5qtUnU/saIIfvQn+LlQcMnCgQet1hbAPzm3RA4B7XR66+9R9ED5t9dS1l2Evc98tCLaPCJs4AKvOTQc+nFoerHQIQBUcMnIbdQNP6AAZk0+lHaywv1+8yGhI3S1L6PYSP/K7AnfVDv45sWtjPVCzx36L5ifr0Yxvd6lzzNDuIfx8+Dpt5xi7WlxJyqmRB05GETaWG3S99d96iTEHTPem0iG+1HwreOcqV2DtPf1gJJ1dmfMI5UDTe0SxBGRJa58MFfjFJy+DiLwAAPmamnaLf2genU3MgtXcatxTC+JqAm/1Hzk+fq7mfbKf/2u7EoUvgk5LM322bNMCocjA3K4mf0VEiRMRzl3rv4/kajBNumsPdLkBM3D0VTl5jPBesJkObtTOp4C+QpIRQEsDatjIKhpNZ8IuGSEEM7Dph46waM+dVRh/kRbOFZ7hJv6jQJeHVyYsy4wEeSBx8ceM/0BjBSx1vs3BGrpQnTckh8fwTCJSH3KM6xU4yGYdjLV9q+jYei4YriX9yAq9wbumyhhaeKboBhAWuAysun9iEuC96fEFboW7GqfLyFyc6NsDKXdCJHINyajzU33pEAc79uUJbRj7aOeAsPw1D+/c26YqthTODBS7y+V3zxRcL754calHWQ1wzV8RYyFB0qnLF8PlwSokfZsY3Si9jvUTPgJTAuXgQzUkYZyImJ+q5dVNioT8L00zxH+/BDf7mBQ+8e2vMfN1HmhdeMGqVa2ApbP6b88y/UXpbfowiB8Jco+GUp2Xv+qPVKNLTyRd497u7jk7RMzNxRKICNKbrGGcidXfRkeSga1DsxDqX31lHvzbdQ5sQphHfime6xRDGL/J4/RfagfKLAQtIcVgTCJyF6FfSGbM1rtAaD+WD+7TUj465WC3PFOIMhZKP1Qu2DeIHFnk+p+PxzVIQVtlkiweCF5yWMSgSi0Sy7rWX+cF9DwDAfLK1Yaezm1jDhZiIwQUofbKb8xk0Nn1aWyl288yKIGCAN/hAQB7vwQUDvusmnl4ZKTP4bjQhEQ0KucO6WLao3DAJNGRzYHcndw6eQBVXmoIejuM4yeAu4kC0oZF56o2yprCNzooPPrcR97AzB4jr2SeIP3kQmf0FC4DqI7KVb77NeGo3u4c2/9dL27nkNTqP05L4vAuEPR5ENKjQfL599KnhIiqFo9tEnzPwgo1Y2H2NYeO11yr03mzqmTh4EmGo43nqb3K0f+svNpEueejqlzjpTLbsUt3xE7ifbuSLny6eLN3G4MQxGhGM/qgNw4F0ciYM03ANzecKZOEaBj4lP8NtsEwcdxuXUaKf5vFgMu2PRmBoVlCMbbjYwTV4nfjQkrORcXLuOMuz97vdO+Pz696m09q3BW3KCiIZW1zuuXKdkzcRhCy28UnDWpx8Jc+9tUKc0+265gtxsjOm88q/758IgLaybJd4qBf9YfpG7vlS81lj8iH0c77yLj/6ocmSoEDA1/0vUcdbpTFDOt05w2VczNelYo+1U2C3Q/dUvUwmbWDUCPJ4yN908WJcaz4YeBfUkqA55mWHfKje4ySMmGuHiPR72Z3QkxJrhJ1spz2tctSRE5czc96CvoSIxLsAnk48ZVIfthI1AdXoYQpZyBB/NAnvEVHv6q16Qh8+wePoaWNhdT/WCXOG9gL1rjYw8Xly/z96FOwdbjnk4ix5wzHVXDZDP7/lmr+GEar9GKCg9rAtnfsSO2SFvdg3KL+g6PJgShxwSdLv/Og6mbjvpBOqcc07/tZH8Eh0JUaF5PoTz/bPn8rsZqoZ38AAZdJIYWi+uyGNv/mEgHianlSER7FN001w5VMvIhhGdwMOT4qoVlFu9htqqlIThc+6pZ8tpJWo22yJ97gXb55zVf7y6Tlb14qBi993zgGqxB8TjE79Sc86LjIAD8tL8EYsTuNEDdnXTmO9/l/D6urqBh9vOGPOj9dW+V+J6HXKIjoQQFBZH7jmwH6yahOnb7uT5A2/QBFG9gO8MJIZttT2nF8X0U73fAvOw6nwaJVJpPGDd7Zh5Sv8eQwyf1UG8PrvdIbczaZJ6X32j5HXvZ1e8SaWNawf2LiA7Dz9xIK2EGgQw8tr6obo4lNFHTaoDfmJqEUWoYkEEyaNCc8XBG2ZxpDtC78Kl5crl9woqLG38/o+hCYLlBncnu9CZeuOwbHj/Q/rxhUoWeNqr4XNtw+FJyuXEuaLVDY13q9nP9C9/O9j4w07uydnn9zcMzaY9Kp9Tdc2l9B8fiqx4yh84ArtEtCQEHFyhi6++pI50x0J45rafD65cHmyIu3o19b3JL0AJIRQ2b2HHbF4CaSbw+yb6brmFcLRC7v0PeMH9GX+50QuyI3cHD7nDClgGcTfwXjesLXqh0guO++fveFfksxYB9roqLHhkSG6CtUlW/849vti/DlRHauJ79CSEUNzD9fGR7nt+8GN+gw/P0aorV63QXKkzfyr3QLW3TH5jR0ThHR7OYa0OraRpwDM942jvD2+i3t/dy/uzfN4yBWJwL5ucdnK4veCv71J5DxCZe8G2Cy+J1VxwgHxx+cE91d7fhDea8ooFK7+7nUdz9equF9nws4naaZgDoqOHW/EalTZv0nq4+M67Q96BAMNKafU7Q1sHYsBxFALczpTXi4/0ibEHUNdlF/ncae4SRgGDLLAgO5vUu676UnOJttJTPIIpLFkc6mZdGMnSd/hMD0LCdXhICGGZiFqtCCbYfI5KZvHSpouI+Wff4qd4PhjCJli0fJDdL2AoOu3EUHvBzIOPD84Jyx9nnU2po48afE+uDEIAjiL7HuGhYwgBIyr0rKVNG8xtC5r5Dx8JNQVSQ0eu3IVVb/Ubc3QfRTy0Wr1330/Fl18aWi+okymTo/uaL+vE1IqD+WfxndUD46ohb5I6L7lADDIDkfH/VZl65Jc/N+TeEATc94cH+c3L3DBCD81Ma/ylHHA1fiSEeNz7FN9dQ9nXVw0QttEPgLb7plv4VdVLIgVNycFroM4JJ1Fn5VXLjWTTud/35DJyP2U3t2prLjdIyRmnErxeJGgiwPiV1m+gDK9RNxvQIO756S/KBDRd5jLMNNp1QkNhBkTPZij/2koqzj67YQ+ger9HF1DugYdJ7XbHEDKiVqtaRhwAjLyNziutTqDqOyzHBXZiUA7ekB+h0vriHQjeO9bLN+L1v+kx+ImOdu0CqBOzcdq5SWDdu+m9lF32Yr8Loe7jsEz3LVhCxZUr9x8+FnFdSnxy/qWuroDDGq9SAZMnn0LOUUfvz7ryjjg3ze+D53c2wNcT+xfVGTV4j7xXgfc/Ed037qVgfU0czBt2eZnCwbsKUl3++TV4t11xDRuSMO+oDowBdmQ4M2dQ/xGLJXY+cAwrZXWaEXyHLgpPaprveQSRPPtctclZV5TSpveo+Ca2vJmVO8GWUmcKb6g+4ojArAbVI8SEU/cwNeTILr4khHQgIiq6n5OyWjiveN1g+BZxawVxfANkRAiSs3y38f9BDUg9DBqnOjwxoAt229MOTERfnQYlEIRNUPzq643y8uqR13iPQD2K73AUQAKQtnhOW/v17CktKjltwKAfDM0vhj2aZqr+0YYzL38JGl6NeQ1vKL9EEASsR0BIaL0KpQC2IyAktF2DIr/1CAgJrVehFMB2BISEtmtQ5LceASGh9SqUAtiOgJDQdg2K/NYjICS0XoVSANsREBLarkGR33oEhITWq1AKYDsCQkLbNSjyW4+AkNB6FUoBbEdASGi7BkV+6xEQElqvQimA7QgICW3XoMhvPQJCQutVKAWwHQEhoe0aFPmtR0BIaL0KpQC2IyAktF2DIr/1CAgJrVehFMB2BISEtmtQ5LceASGh9SqUAtiOgJDQdg2K/NYjICS0XoVSANsREBLarkGR33oEhITWq1AKYDsCQkLbNSjyW4+AkNB6FUoBbEdASGi7BkV+6xEQElqvQimA7QgICW3XoMhvPQJCQutVKAWwHQEhoe0aFPmtR0BIaL0KpQC2IyAktF2DIr/1CAgJrVehFMB2BISEtmtQ5LceASGh9SqUAtiOgJDQdg2K/NYjICS0XoVSANsREBLarkGR33oEhITWq1AKYDsCQkLbNSjyW4+AkNB6FUoBbEdASGi7BkV+6xEQElqvQimA7Qg45CRtL4PILwjYiwDzz0l09xC5JXsLIZILArYiwLwD/xxqT9laBJFbELAfAeafkxg7gajk2l8YKYEgYBsCzDvwz3GOnMgkLNomvsgrCNiPAPMO/HOSk47hOaH0hPZrVEpgHQLMO/DPSR13HFFf2jr5RWBBwHoEmHfgn9M+bQpRe6dYSK3XqBTAKgSwIsG8A/8cp6ebnGOZiGKcsUqHIqzlCDDfwDvFv0RbklKzzyLK5ywvlYgvCFiEAPMNvAP/lNta1yVziVLtMiS1SIciqsUIYCjKfFO842IoEjrjx1FyxqlEhYLFJRPRBQFLEGCegW/gHUKZhDwv7Jh3IVEiIb2hJXoUMS1FAL0g8wx8w3wQQZEQ49L2aVPJmTSVqCgL95aqV8S2AQHmF3gGvoF3CIqE+JL6wuHUfvFFzFK+BLZKEAQEgXARUL0gu2szz8A3L/STEBc6zzyNktOny9zQQ0c+BYEwEcBckPkFnlWHASQEOzvmz6NED08YpTesxkm+CwJDQ4D5BF6BX9W9IBIdQEJc6L5oDrWdf1558V6ICEgkCAJDQwA84sV58Ar8qg2DSIjJYs+1V5Nz/GQx0tSiJb8FgWYQgDGG+QReecaY6mQGkRA3U4dPpO5vf6PsUyrW0mq85LsgYIYA+MM+ouATeOUXfEmIiF2nz6TuG28oPyPDUj/s5JogUB+BCm/AI/ApKASSEA/0XDqXum64nv1K82KoCUJQrgsCfgiAgMwb8Ac8qhfa6t3EvZ7L5qsomVtv50/uWpPlBUZ1Uf4TBASBwQhUpnBd3AN6/Bkcaf+VhMth/8/gb70Ll1L6J7eWd1s47N6GRX0JgoAgsB+BihUUztkYgjbqAb0HtUmIBzKvrqD0Hb+l0nvreHFDiOiBKJ+CgFpXxx5BtoLCCFNvDliLlhEJ8XB+y1bqvft+Kjz9LLm9e4jaeEQrvWItrvK7VRBA78eeMFiIxzogliGCrKBBkBiTEAm5hSKln3iGsgsWUXHVqrLRBnNFIWMQznJ9tCEA8mHux3UermjwhMFCvN86YKOiN0VCL9H8h1uo78XXKbfkCSqtX8Nk5Oml9IwePPI5GhGo9HzYjqR2Q7AzNnxBa13RTIo+JBJ6GYGMudVrKLvoSSqufKNsvOHJqcwbPYTk02oEPIMLjoDheo0NudgPiO1IQyGfh0koJERiGKKWetNU2r2HMouXUn7ZC1TauJYo18fbM3jzosPWVAxXYdBBkKFrGQf5Pz4IgGwIOPQMB2JjZIfjQNnjBYcy4UwYHEmBHfHYkNvM0LOcwcD/QyPhwGT3kzK3ei3lN2yg4vpNVNq8ldy9O5mYeXLTveWC1j4ovwWBkUCA346kXo7E74ZQR9Pzydg4mBfngqpjCUMkXW3x/h/WVy8ONvA16AAAAABJRU5ErkJggg==;" vertex="1" parent="1">
          <mxGeometry x="70" y="170" width="45" height="45" as="geometry" />
        </mxCell>
        <mxCell id="vWYHXzRiQ3g4LQAD42oX-3" value="" style="shape=image;verticalLabelPosition=bottom;labelBackgroundColor=default;verticalAlign=top;aspect=fixed;imageAspect=0;image=data:image/png,iVBORw0KGgoAAAANSUhEUgAAAOEAAADhCAYAAAA+s9J6AAABdWlDQ1BrQ0dDb2xvclNwYWNlRGlzcGxheVAzAAAokXWQvUvDUBTFT6tS0DqIDh0cMolD1NIKdnFoKxRFMFQFq1OafgltfCQpUnETVyn4H1jBWXCwiFRwcXAQRAcR3Zw6KbhoeN6XVNoi3sfl/Ticc7lcwBtQGSv2AijplpFMxKS11Lrke4OHnlOqZrKooiwK/v276/PR9d5PiFlNu3YQ2U9cl84ul3aeAlN//V3Vn8maGv3f1EGNGRbgkYmVbYsJ3iUeMWgp4qrgvMvHgtMunzuelWSc+JZY0gpqhrhJLKc79HwHl4plrbWD2N6f1VeXxRzqUcxhEyYYilBRgQQF4X/8044/ji1yV2BQLo8CLMpESRETssTz0KFhEjJxCEHqkLhz634PrfvJbW3vFZhtcM4v2tpCAzidoZPV29p4BBgaAG7qTDVUR+qh9uZywPsJMJgChu8os2HmwiF3e38M6Hvh/GMM8B0CdpXzryPO7RqFn4Er/QcXKWq8UwZBywAAAARjSUNQDA0AAW4D4+8AAAA4ZVhJZk1NACoAAAAIAAGHaQAEAAAAAQAAABoAAAAAAAKgAgAEAAAAAQAAAOGgAwAEAAAAAQAAAOEAAAAAO1fk/QAAQABJREFUeAHsvQeYZddV57vOuTlXDh2kVraiLVmWbMmyLGdk+znO4xnjIcOYMPDgGzw8DB/wvfkIH29gDDMwA7x5HjD2DB8GTBoY2cZJDnKQZSErWKlbHSvXzfG833/fuu3qdvc9bV+Vq7r6bOn2vXXCPvusvddeeS2vlJ8JbAtb3PyRevc9b6T7w+72bPgVw8+GDy2s//AetvaKwEab/tHuNuuN+PxeMNoIOoxgu9toGLLdo4+eH0FgF0AgQsJdMInRK5zfEIiQ8Pyev2j0uwACERLugkmMXuH8hkCEhOf3/EWj3wUQiJBwF0xi9ArnNwQiJDy/5y8a/S6AQHzUd9hqO2CYnS7MDjfq/Vu9S/khdspR5yfMDueH2HHD7g+zsoXZIcPeP/T+EDtymBUxHgyf4TA7Ypid8lzs3MNHMOoKiO6PIBBBIBQCERKGgii6IILA1kJgZHZ0a4d3/vcexm5t9Rtu9/O3+v12Q/8RJdwNsxi9w3kNgYgSbvH0ef5w1VDQC1MdjDbA7X7+aKO/MO6OKOGFMc/RW+5gCERIuIMnJxrahQGBUHY0zA7ohdhphjNjhpVq+BXDzxp3D78ibJcZ+fkh7x8WLhcGv5GXYQi3G/Z8L+T+MPiG2RHDzoc8Pgy84fGKIfMXakf0hr/BudgRw2A48hqIOoggEEFgOAQiJBwOn+hsBIEth0CEhFsO4ugBEQSGQyBCwuHwic5GENhyCERIuOUgjh4QQWA4BCIkHA6f6GwEgS2HQISEWw7i6AERBIZDIO5j5thsKzr9dxCS13G4lW7r7YDxEDth2Pg2v++ZQOUFw+1AFgafEDvUmZ55+jGNUfMQMJa4F7OY71un3bFGo2mz3po9PT5luaWulbycLfprFu82rBZ4NuEVrGX107v7pv6e9OP2hN+1TCpvvcqqZZIl84MW4+hYbTpp8fXk0P622s7YDbEUhtmBw+IlQY6h7zeqHVGdhxrrh44gOrntEKi88Da77u47LV5OWTKRtJlMzWKdtrWxcscbSevmwszdw18h0/OtlAD56bu11jB+2pN/eY8FD33N/FXujXip4QA8h7MREp4DkHbyJVMvu8tu/dffbwkbty6U0ku3zO91rdPpmd9Km+VGG323XLcuXiF+HN+pFHSl3rJjDx2y9kNHLAMValp3tAdEd0eU8HxfA9XlmnmxrHVAw1arwYT61mu1rQtuxCxlQbUz0ivG4zmLBzHrKdrDT1ks17NezLeG2FxPzF5spP6jmyN29LxfA9lO3FJB0prtHugglEhbr9nil2/JZArZMUSmDYFA12qgd8a6tY51ApA87Vk6FbMKaNiLBRbvFUN6iE6HQSBiR8MgtMPPd5pVazfXrdlAYZNKOERsQQktAQJ2mhbEGyO9QSzTRTfhWyIWt47IK6zu3CV7bCWdtIzfsOZoOD7S2HbLzRESnucz2UsSR5KOg3x9OgiOmO+DjNmMtVuwpInRFDOtctPi2SoyYc6CbsyarZal98/aOlzofBOZMOJGR15BERKODMLt7cCH5fTjWcSznnUgS90OshqEMB6DLe0hD9ZHI1XJapLuYHPTPMdPWi/oWnJ6yiop/q6C4BESjrwA4j42p7M12abC8iaG2WGGW1k0h8OvCOs/bHyj2vnC+j8b7M71+LnYOQNgJFTqwRZqPDE+Lo4SW2C81UU/CcnrJcxPxLERetYtVEHGVWDrW5CetvlYx5bWMCnk5jiW4tyKWY17clP0O5xd9ZIVixcnzW9X0LoG1m017Tm3Ps8uo4vylbO2bz2wcmPNWiB/HrkxMzFhrVpgX8o3bW99EurJhUNawDsNbaMRcmAzvIOw9RVmRxzeu5Quw99PeU0jSjh0BZz/Jy9qtu1fZZLWye0H6Qom7jTAqI/t3SpQsXx3uGIlSE5bLe5ZVmuJ64P4GD969mMvfjl8Lwqgi6bRkuISgPHeQNAl7ImfO3jQfuXQl22mUbbjWEmiNhwCERIOh895f/ZE4ymr5/daMdGAJuQcdexaFe8beFYbs3ZsOCVMxLqgnGc1P422VQoaEC5Ws94LLjL/M1+0ALMI7jOWjkGre57l0nnrxtp21FasnhyzIrrVqA2HQISEw+Fz3p9NZOcsl8ib14AkNWFrO4gYKSlZupZFEvCRHcNaFiKHJcR5ywSdFKaJhGVveZE1PvaggWV0gujZbVumi3cN7PBcPG2xdsxKxYIF9eFIHvbsC+F8hIS7fJbb2ZgtwYJOJ+POgN/zketSZlloYpnjORHEIQ2cQu7EbxU5tMV3T8IpnjOxa67gmPxGOYZ/qe9qOiBhtRI2FWQtgea0s9RCSzuk8+iUg0CEhLt8IcRQvGQtj1KlhlIHLSomjRbsqNftWDGGT1t8uPZUSiAphtJS4IFzHdjTtNQdV05a+eJ56y0uQgVRyEL9oH+cZ0mNT1h3omT1bMHyq2u7HMKjv95w1c3o/Uc9bDMEgvYGqeuiREFuazHjbZzcggBDfqNhVfxCh33wHAXB0KF6TWsh6x3Hawb1qtUSnpVfeb2jkjmcA9KdFvJhFW3Psk0gb47jKJCpRQh4LtMfUcJzgdL5fE1Q7CvJ+e7yC8MEERY5y3n4laJsyYawoxBBcZwgGPQQxEvLE2ehbdm5hO197m1W6f21rdNzLJnDVonTQKtjs9mE7cG/tIPSZh36GLXhEIiH2cGGW/GU93N4C88LOryH0PGFxPuF3T989LLzDB9f2P2j3R3WO1YDeZLpMv7Bjm64kaIo4alCLr57sKHJHghCdAX0ynINZLh03wlbrzbETKxeTzYhoNqk/gEB1TK3XGUrl19hzaNP22y5Y5VCYBmeW+HS5+cusr9aPWF5sbPDYi5D5y+EWWODGKWNakcMWx5heUdlRwx5w1FeL7r3QoBA5o0vAQEb5mGLzKGMWYEVlYb0okTOOgQDxxUCBaar2GcPrc7mop/6O2pOuRyBIYLAtw6BsTe/xLzSHkKm6rCrGQgyCFfv2LUTMxZvc0zhTlDDM7WwYjVnumc3Hoso4W6c1W/jOzVRmSa/+24zUm00SL0xgR8rTqx2xfik7YPQNRqodrBJxvyYJRI4lvMtpNRHv6MWUcJoDYwIgRQeMdl/cad5e5ENl5ZJgwE1RJs6FfPs9uk5q9VqhEB1LBbrI+HAV1nf8XjkTSPwR5RwxEV4od/ukYMmls5Z/Z2vt4wM9rCfrQTUDnPFq/Zdhm5ILvqnsqNnY08vVFhGSHihzvyz9N5OuYm7Wv4Vt1j6RXdaUGtYGo1lLR7Y83IlK5YK+JyScAqWtNlsOuWMHi2NaYeEVFGLKGG0BkaFAL6oBPXjQpq0/E+8ESdS4hkx3tdLaUu1u1Ys4sKNLNjpdDjcsi5Rx6KEQsL2wJFg1DGc5/eHGutPZyVOf9+w82F2tjA7Xlg8YNj9p4/39L/DxncqI3X63eF/x8Li5cK6IIYvGJTchsJoAcuyJLgrusELOu5X31o4GK2+mVr3bIyHW9iWSHEx1cvYIl44E5fvt+T3v8NW/uiPbHopZq14135rbo/9y0fus3owhr2SaPxO156IrfIeMZvNzFiZOMVhrbfFdsQwI8lmk8qwcZ7tXBjr7WJ2z3ZzdDyCwLlAYCoGArZqNkYmNq/tW+4NL7LC3a+01fKypUgUfCBTtIsJ9F3trdsc319MVe2yWhzXtpydIElx1CJ2NFoDI0JAXjoZAnmV5YY4KWvOFqz4A68z/5rrSBa8Yq2xnP164UpLzKbsa6uH7DlB3r5KZEca5+5SecSH75LbI8XMLpnI7XoND7+5bC9uEEFrplDA4BTe20fai5/7QSsXJqx4dNlmLjlgb+2OWxLTRa+BnDg+YyfWKpbNRnFOmrcICbdr9e6W5xKf6JEbf7VLqBTvVPBxFEd2TV11se398XcQCTxhtrRqP7TvOVbKEJmfS1nx4JoFOHgvJJu7BQojvUeEhCOBL7q5V23gL9ojzjdpCZzDPVJdZDoJC8iFGHvd7Wbvervl23G7EiXRK1DEHOpUXPa2zHjeEuX1CIBAIELCaBmMBAGqXlgGZWzBi1uV0CXFKyojVAun7mqQsMnXvcLiP/tdBARn7Geec7stkpltz9691oM6ZnVj1CIkjNbAaBDo5bOWJE9GUG9bs5DBXIIhnpJQiamCpck708AGUHrTHZb/3R+zVeTHv7nitfbFQw/ZDBH4S2MjxiGNNvQdczfMw/AWdj6MlIbdv9PtgKPa+cLq8w2HPjQFuyDJXMjh0rcExvidUJwgy115X7a7UZANMtgfhYs11E9lkKLl8Q1VvN4ajjHj17zArvv1iy3x6//FfnLxYfvIygly1hD4m5yxzPqKzQdVq+ZadiRP+oxW0grtLAH8FKLBjKH39PE9VXyknOBi2E4TOAl4fJdVq21IC7Njh63fsG0iLG/p4P6T9sbTYit1PmwMQ14vOhVB4BwgsNKwsUTWni4vWGNv0q59z8/bG9/1b5ELA0sfX7XZ2qOWGWvawUtB4c6sXXSMlIll8qTi9hZP1onYR9Yk2iIuxEPjIyTsJRNoXpO2WAr1NTmHAW7/JRESbv8c7OoReOk0OYGbpD+cts7YmB31l+y5P/F2+/OPf8Qumdxra42qnVg9ZhNPLls5F7e1sUm7KF6yDoqcXrVpHVJldAkYNrKLJ+MgpCgirdluWqW5O4z9ERLuahTY/pdronzpSugpr9kYX9OlKZIHty152Zz9/YP32cwPfr9dW7jejvWwL9YO22T1qB2zJUs1WZrTF1u1WrVyvWprzbqtUIGqim+qV2/aGDlU95NecTe0CAl3wyzu4HeoyXwRS1opVTKPgqXxhurdJ6wwNWWZmQn7o9/6AzvwV79gs7fdZjPNvD2UxvhPnYwSiNeqn7ArvLztIzVjgQRTKk5KlQ1r4KYTR04sQBl3Q9sdTPVumIld+g6TsJVBkxTeZGLzUuSbYcV1cG+Lo2Ayoiyuyybt37zozfaBD99hj3/8Y9Z594fMHviStbrHLV47YfHODPUzfEuTLzVAFuzAmsrpeZ3ip2WUNmGKl/MBrBESng+zdB6PMVCOReGb1wYB47iXdszvkImG3x5ubstBza7vZSnxPW1/9ZK7be/f3mqrDzxpj/39P1j3D//WHk+SUJEYxaDcslSdlIsq0QYytojMh4G11NYGiXxbIB8h4bcFzBfuQ3rKvQjStMnC5uFXmiHqQr7eDahYN069irWWtUpoTUHKQi1rf5alPPft19jkzS+wzs+9247/5e/Ykfsfs2c+8iXrPHgQWbFqyVYK0w16UjSoPfo439spSLiZtJ/MhIVqeNDCzg9sJifv5cZQO9lpdpPBs871e9R4wDA7YNj4w+LFSLUyWhP86UPCu0Cl0ELZDMXNqevU+BT2MmaG+hB+A7bPI8WvTpJb1KvJtjba40e9OwYCquWQA8kcfLK7zEZS4CA9ZgkF+yY6tj8btx8Ipu2eY4fti8Gy+eMp2/+WH7eLvhNNKbJk+aljduJLX7Yjn/iMrX/hC7Z25KClV562JPBI8F8sVrDqeMz2rzbtaTSxfpPEw+2NUA1kSIEFUJ2Mz9TfYnUHLdhY65trEm5e84PrNn+ftP9tPrjp9zecP822q6efgoSb7o1+RhD49kCAfcJDwdLq1c3Hw2aSRFF3ze21FAjxQOWo1XNE4FegmqTCyF02bVddebdd+45XW8D1wUrFatRFrByrkdJfSd5WbPnpL9unfuTXyATesDnMGeU2mEbDtH9y49L2Bd7q4I5oERLuiGm4cAch4iOflwRBwQHBwfKCmcOkcSckf19h3j5EFm9HKlDEkLTNOlMUnYG89xpkFS9Q/SmZtxT35XMZSxR6NnPFvP2v5r+DOrbsSaL2pzNEcdCEig7nRIn44TgJfndDIvfdzVv8T4SEWwzgqPvhEBCLPUCQFIb9Xp3CMlXPJtCCjpF6/+b0jH0ZT5kPTZ6wqt9ErkzgPZOzJomjGifqlt17CMe5OC5w5DfttZEzm8Q3+nZFdsoq1EaERroBSFQSsp9kL3WYj0q/bXf7OkO83SOJnn9BQgDTn3Up6d3ACC8k8dMoXFJIZZ2GxUCSJqW4ry749gv+nL2pOmVJb9UqnYdJHHXM8hcRTNypW7qoCsRJ0iymrHWMbG9oYiv1mp1w+tM+paUOlYOvzBv67KQWUcKdNBsX4FgwI6JSicMeokcFC11yYEwXMJzIiQ1rpD0bR7PaBSNvLWXshe1L7D4yRn3Yjtjx1UctFr9SwVTUSOxaPh23zOQcAcMTVksjQ5LlrVUTaks/BesJIorwOQXiABF3ACWMkNBNUfTPdkEA71BLYZ5IB3jEQKDaFInxsAGqpkWc71IVo3yK2oogUAYlTgsf0ps5d0t3n61O7bMPc9MT9HE0sQRVbFNLccmOJWs2X27b5WhkH0JrrCbEcwjIM1zGug1iqNx1290iJNzuGbjAn98D0WRvF+uJdQW2EgREBuQw5i3fVrMgIgHDKEHBUBBWF2HpqMPHYnG0N7WetiAzZQu5eTu8WLHKqtl9fsHuK63bMZy8S71+fUSVKBO69VDGePxWNIaQcidYGeOONDOYb2jalmga7BnbsPMb53TfhjL4jF3oYFje0B1vBzzrm/VPjFp9TkyUpsDNAkZLFRnzN4yXPb61lPq2Sl3RnyvZu7TQdprscyZQZQaUSEjHp08V+u+h68cHN7kTX6cZQkDXMgdc4dNZwDQ3QQxism3vf96tlmVld/yWPbC0QGpFQqLQgq7CshZiefu3z9xvS5hC9jUKUN7aoKcN6J2+5jdI5smrTv0x/OxgRk69Z/Nfuv/rb7X5TPQ7gsAugcDzZw5YGa+dDCaPVTJ+i+29buWwPdygjiIudYs7wAc8QsJdstii1zgzBALKd+d85ExY2knxsaRnzBOV35P5QrUwcAzf7hYh4XbPQPT8LYVAFc+aBlEbkyBhCzY9gc9flU8lH0PjKmc3CZvb2yIk3F74R0/fYgikshmM+GhXMeD71MGQ4Nlh1QfIjD35je6A4PwICbd4EUTdby8E4sQsSokjs6Bb7JgNM2SDS+I0nqwNDm7vGKW1jVoEgd0LATSiHuXYnI+aQlowbST4zmBDLAU7wUAhG2bUIgjsYgh4VA1uwHqKDK5h7qmhKS1ja2xieGwpJmwHtJHZ0bB4umDDS71vGu2/8eZ7Braszcc2/95w+dsyUJ3yrDM8pZWkHDTG4yQf5brUvCnerMtu6hyiyDKtPuThoW/V3ZN1KED2kOdHq1th/j08G/EA4Zx2PfZmglx71oFHilPfb1hT3lF5dXR5gr5lt+WJrg9nWJPx2o2EXT4g9YMb1ODY6EqHMu9akJczGsYAmeo4QbSTh8oWnynaUylyMWGr5Et6R5f0F58xt7XL5ifNpIcr2ZY25gMQ8Q8v7rSgOKc5Oyp5aICLbKYuuS6eOFlkwCTp+pOAJ6AwDck2uHc4Irq8rxsv8K3EG/oKAKUN7nW/T1vUWwwh9/zz+p88paCp8Yxw33MJhuR/2AOwgVw6YG0mMAhzCszShPODbzXValfrEKyqsBkyOjhvDSGncm521C3n8x0t4Z3bqDpoPXLEeDFGy3unrWnlz99vuSuvsEuuniFHaMe6Y6SpwM8zhwFcTSkn6svr1psqWm7nvtqOGVmEhCFTsdom2JSFKISL4beo3RMnf0eNyOpuh2MsUCWqBan4sgRauBgySAy1OIds1pPbFJSTj6hfW54sLGa5USnKe6c32bJFgz38OwM2mDQG74Of/KzZvV+01guvsdxbX25xsqhNKL+oKPRqmZqEBWtMFnG85ubz4B23ew4iJAyZgQmCTcXctUCsjvvA4okF0kHQ7KrmGEjFIWQPsrZTIrpndWxPNTz/26TmW+xSnUhIyycF4qUgi4SjUtkW9pTvldhwdjRkeFt+Wh6IkqvkZCkmOM2/mZUVW330EWv/8302d6xu+bfdTuLegnXIIVMcK5LaMLBio2lHJ9I2xzurhbH9W/4iO/gBERKGTM5sL+HY0JrYUa7tQBG9JOhDnQWSmtgzC6s4GyOtiVsDsZQgOsmK3XDeZ8kimUANemCiZEkhZkvyi+NhQUyt7qGtv4iHXrKFJ6XAyEAFV0nMlNFGQnhQLk8NQrHjBNIe/+P3WfWTn7b8O99o2TtvNL/VsiYxft3JHCnu8UjJ9JeYZP8IEc88URESnhkuJ48+ZBW8LMh7CXaRhN2xohLqe9iZkBRtbE/aunj3t5stcpxA/ZqQSEhjHNnPJ8lmrLO+4aROIZOEkFT8mRBLHzGpxZPP2ok/3Gi1iVAPguA9RoyMKwHXRz2UzlsRiu8dPWTNn/0Na116tRV+8XvMrr64LwtSiLcnZ3KnOeGNI0Q84xRHSHhGsHz9YJ36CB00oz2QSzkzlQNFipYm+pQ2iJY9vAwikZYhXzB/75Ql9lJliHLRmWl+UzYsUcygJWxTv71izYUlqx88Yc2nj1r76AJp38s2sVHR6OtPPPXX9tJBMdxIhMiysqtpsQRoP1tkdYtLEdVqUrCFEZKS3jJZC555wtZ/lCRLt9xk9n/caanrLgFxc6cgX4SIp86v/oqQ8BthcsqRG6opazZrVgnqVgMBO1Pjln/upTZ/0xVWvITa7K9+E0SBLCfJLAsyS1LbNEhKpdoARQbrs0tMm6OAyFW+s290rEMqhzY1Fjp48n/mplec8ryd9kenVrVEIk/qUKg4RL7Z6lkyVaAyUt7qvaplyANaJ5VhA/Z8AiVUgJKm8dF7bOkzn7X0jdfZ3n//s+6VNiPf5t877X23YzynIOEptjzkHNdYeIPmtIT8sTmvqOOqBhec4duXwWhIG7Aqmy/RJA3a5jENjm3+Dssb2sFFqSNWkloGhR6IIJYRxIiTSCgHpVpeLpNqT7UNYC5TpFfHpNAlr8lYrWMzUIGvJa6w0s032/wrbrfZO55vxedcbMnxHFmgZWNCLKr07Xf6Q/F9KEVhwZqYK6qOAvRaWAVxVuwSIe7hsd8DEWNQUSFt7cSiVSvLls0V4WApB4Y9TnX4XAwn2cJUh7ALLLpQnS73CVayPXZFjfUfJFlmLlFm54eMmEp6FfJ78pHiaGMK+fUtt2R23Cmh1F0MwTeVIsVgj1ye1KiPI/h2ekQE8s7jbRyiPfLCpNJWiWXtwcoJu+PBJ+2rt9xt8y+7yzJvvcuCGy9HpoRjaCgTN7IxTtRppVDTOFkmkpc193FYX7dq+N2D6nrI4TKP6N31DTPM64lGA1MAEK/w0uSmWeNYvoPiK8BUwvhWMylXOMax/g5IunPjYe5bv3VsWHMjOesFA1w4ux0wfBJOQcKzPuk8PlFHZrnIz1qW/JOHSYHnilCSKm+ywoQvHrHaeNwasJoyshe8rM3VYC1BkModl1vzNdfZd7zutaTSK1myNAYSwXIBCy2gDnKh9CsxaSu0WJCTJP9oTp1RXQuHX0GWBYUHfwAyCmO8AJmqxcSwOfTWkadQ2HhxLURRTvqQhkdPYXEKwWSaH7RTplOX7YAmhPFAHrUW41d+0EfWV+2ehUPk3e3ay+avsu4n77fKx79s3vQeW7gb5c3b7rSJMVj2cs+W81BWYK+MaXFgsCE+Km93HylPltQW5PvssY8ZSCyyj+zdwzbkQYnbkOkmqJmR2hplkkddQ9Rg3BGm+HLdbus/ux4JM+MlW1gru8URZBK2B5NB9hgVfzCALe5DKULF2LSXovhIzAJsXc233GXX/vj/bvMvuEGWdkgWFM1NJBOORrOH10wA5ZTNDHLnnIB7fOu3UMbt2EJAlBhuRbEGAhZGgOlCTIFSNgiZRNX8JJQAipdGsdNjCXmihCC0O08i3CTeKZRfcJyHZFENQ4gp9O5Tpm1dO/2H6z00YiiN4v4h+PZYo24fXl2wQ8sY9hnzi/ddZeMMuLF81LLvXzb7wEetuqdkS3dda/u/9x30IwTT5qRNiL6UtRvw+SD4ILODMhQILnp392Pju8oGmnSUE400V8d8qKCmAziPV9Fnx3e+u8CuR8IypZiDGbR4lrWZY2Xyl1CUUhWCugmbP0ztO74Lew7Y5I/dbZf9xJssOXmZptfqq6AefGOvUuUv7a49ZD60nXycsZ3dVprCepvKQCCdT2yaj9znsSC0UsRWaWl1lxKsKe6BeuLh5iidWCgtqYADbRQdMusHlA+TF00MxNM5n3s6+FuRapN+QEwWp1uIIhX0rWuEiNvdNByIupEilM2MMSMP97CtnmCEXd75Mw9/ym46+rj90OU32UtL8xbU1oAPxWGWMHm873E7+HsfsNzF11ji1bdb+q7nWvLyPWxY9AdSx1t0LM8jYd/Gp8k8dMSSc0jbXhGgiRUU2KmzDVdTscONJZuAxdf5nY+Cbr9hpLu4XZWZtKOHF2wVf47ueN7G2uM2UW7YaituT86N2XU/88N2xetus4lLL7PmMgqYh4+AiLCfeH206muWmVcldiaeSGwhkn47BGLXxR+fXRvztagBZE7sqYdMIuwL0KQKWXRJD7OEfopK9i/auIbFoyrsAbZI9dwm519bmAjl7MHWxWC18qSId9RP9/fxm27oz3Xh6AIntq+1GYu4a1CPd/GsCCKOe0nChzIUbcnYpSRgOpZL2rse/Ijdlpu0H7vhdrscOXNt5bjzQErMTLLRHbfG+99vK//tj62dyVnqqkstf9PVlr5sj6VvRtMqFgJbpQd3kaT/pONC+u9eSwdEzoOIjKEIgHqpDFm3C7jOcUzeE+cBmTkPhjjaAquvrhBVnbR8qeiyMa+srrNgxmzqB99or/y/3mb5vc+zTmXNykdqlp0tWmlijNoHlKJcW7dMAc1ovQJCkBUapGCeQQQoHpPtCemY4ZRXAMGQhZDhOhi0A9UCA4k8KKWQJoiTAzoFRYVc+CwiJWnyoRYx2OJkhmKYsMBpFmkT9knqRykn5JnTUz+YRlSnoY/kdMvjnXIG5HU4PRponp27eZeu5DDRHVF/4JSBlc4Qxycf0oMTbFXPHAdR4vb5bMN+5ssfttcW9tjr56+weT9H1DuxDSijfJQouTQygtjuRx637le+alUSAB9JTWLlyFqSoqLJffOWuHjG4nunzZ8qmZ/PWHkeTW08Rdp7hSihHDqBCYi8pSttKgOzEabQVu/0tuuRsFso2Arz0FtcsTFYv4lXvdyu/nc/YtM33GLddSSx1WVLMZlxzAytxRrrvmOJcXxe8siHmBKsQj08IY5YTnguXy75IKCLymbBtDzqJ4gEoiKMxVuwsGhacSKVWCikeWnjUitC6bQU5N4sX8w854ps3W1/ytZuehkZp8U0xa3KwpWGtYPM2QahpQz84a98gX6Ecv3+3A/+0Ragpb/dLc4goDmOXe6hGvbQLAcowwI2oQBY7D1B8OzsPhwZKOBSobISlZd+d+mQ/dUzh+zu6QP25gMHLAsbX2BzY6fiJbXxADnk5SbbZVaydqdq3uGydQ6CnJ/gjXmOZHJtfmxn1uDeCr/rIGEwOWZFFEPpsRzKNLTOmIJ2etv1SCi/ls6xI9ab32dz734HFX3ewCRPWn2B2ucwMCmoUZt66h4yWGIWexgz1lynChAahkRy3IKioiSafNrqqS8eIvN4yJheDG+ZxrLFWQR5ZLp50uldhifJJSDYXhanrqICtAv1EZ7yJzKTJEChJ4sttkh/GPuhHNKOpkG6AIrRU909LTD+HjTWprtfpkbd3+9O/WxzQyvsyQsIqi9XtgTj66Dxlbmnq80KHFheWmIvi1m8mHUb0nwPSpXz7PdSVfufX/iovWDPxfbK2UvtubCRGTgKx8qL01c5bFzjBCu9vFhOD+T0MOc4IRBBMMBNzkuyicLKx6nEJLgYeUhbyP6xNSTTSDEjiAxvcPpDLxjYDMWGqQ2+BzfFYdlW2UqSsHdpNJc5qMhxECtD0tiZpYo92inY3jf9S7v+X3+XzdxyPQQn41zOkmOwjDFshDXYvSQTDyXrok2TQiBGZESPY13Y0F4N5MTrRbXvtAO3a/hFopGLseMrru8dKexSkL1xfCrHYIscsjA4UbQW1zvWVe8ooZB3cL6kIJhiCwOuD7pC1bRjQ/VO2gQCFpTY0A6UNgv1rTX794padjjnY8aQ+5tc5zBy6mkbnwEsoU3Sbii2z2Xl5GurGqRQ9eMhfgyDXQMboadtB5NQmh2jTYls+dq4/KE4J8hs0OIyRaJMLzXtcTafg4cO2ceOHrEbJqbs9rmL7ObSlB2QwwNmIClbtAacZlpggF13frqCJ3NNSVGXO0bKMo8qvjG4lzpp8gWSmjbHesfSzFFLSM28yZc1w3hrWQ/qDEILfEOaol1Ob/1NtH9Uc3R60ywPmjNbDf7Y+N58XoLFeU8Jk9mcTeG3ecirYgCPo5ULbCaet4Vm057ppeyGX/opm7v1BtjPK9g8k8h7GNJh+2RBkNmgmcAjBKoWb1B+Ga+YRoZJBqHjdeQ4TVwGGRGDfjNYsQSJKpOwqRd3x+zFQc4uZ3JXAaECdqUZdAioOWEOBOgYO7XQI2pnh8AM0RfSFne7Tbtv8bDdf+wJ24Ny5uq5PXZgetbe7s2yWYLbIHRL1BaIKiolyeKPgSBZcSdsvv2NiG9NguAvXh5k64ylya6GFw/XFbjUg6PpILeqCI2juJu4jbOPcmvPnPdIWKsQOFSM2+yaZ0eCdTuw74CtPrNm4wD84j/5Vbvk5S9DPhhn6jLWpuxWC+8KqdPFPmnCYiCmrTPBCSZF0KhihkA+7Obw6KhVrI3PZ2YsY3OpKbuFyq83YcvLF5lc3c6uPsYyUFfgK+tAi4HG5KvBcLp/3R/RP2eEQGMZdj4L5UQp0yhlbQVMO4rZ50tHnrDk8aftNwiDvz49Ya8p7bdXje+3mdRYvx+qgjYIJO6Qcdsjh74H1yH4w184yhKTPRZ2OIYbXZF5zjMnPruqh2fPRThl7EX5NYNf6+GAvPnb3M57JFxhW5wpYx9iR5uF/289uWzjyAxX3vP7tvfG55PmHAZIDsZiN5FfYpIpeOse7mnU/bHcWsHqJWRAdsZEHdYUNlZ17jrEw6WopT47nrArmgW7A9ezGfDVuSk580HTeWhkrXSSAvY5FxYEuBhsIOI2z++Of3w2l6Z+veRyTDKphE2lS8wR7GO1yaduY928PY6Y8OtLD9r/4z9ol2Tz9sLirL24NGtXYeoYh21VCJmbFwnRjhJKaSO5WnI3ZJPvmDRlsP9Vfp9g/g52KnaceZ7cKOe9nYA675FQGbN8BP7OiQUoHBPC7ve8z/9/Nn7N9dbG4N5tMgm4PsnXM47q2kNhINlORUcQzayZZQclCDWeh5bl2tZcqyLM92y8OGE3NYr2GlSZXUJyJJatM1PpGlJIFXa2gKFdMqBm71QC6OZTx8XphIgc7toL+R/FJ8ZAog6CHulBiUfE4R3IFeBBY6mS4V1INaYUpgZcBlFYLaC9/uDqIfsfy0/CwrbtMnxRC/gF700X7EC6aJdmi3YR37Mck1mk4lelQsP5nr551gpyYRHn870IsbEuMjZKt+1u5z0SFkppWzh60AqTl1htqWavOfzn2JQuscqhFUvmcpbIwYKgxBDLohp4cjlz9jfYkiTOx12OxUooASgM0sW2lMST7bLGpL2hXLSZokRwua1hUpAiBVbJY+deglpSNs8KK/RZ6KOZFEa6zn1zTgK3Q9DtnuEd/vx2o+U8jZJJZHDpc+BcKpLZZHeVhhi/3ThOErI5xtgJnfM6u1sbBGtD+Sr4xKyhwHmivmL3dBeQ63HQF0JrDvhcBlWdlmcSiJ7OSvsatwfKC7aMVUhKr9TX68FsG6TOeyQsV1fxhJm2ytK6vW3lU9ZBUVM7tmK5/VPWO1EBaUAeJraHMsY12BEJhD7eKHKs7ibYfomEkNY7DwY+r1WwV+ConRaWcUuAxi+OHNjk7xUmPSOfxAZ9aGctgXhSk/OfWB+HhO5fzrECxBk5cth/cvTvGSCQKOSthZa3QUiU6sfLK0bufz7FCGNsfCViMXtsnC5wWmYiaUG5JoNJKYNoYStott1ECdiAG41oTDKiVjbXPo62tAYSVnF+8IKqFSGJcsAfJ/SqyJyJu9nudt4jYZKCdIuTGXvdp37POuihu9Q7T6JxC5ApEghxbanFmUSfrVFhQgG+mS7kCAoou1+byZcP53WVcXsTnvcFkLGL1rMmh2pkxli7YHK6kEp9FjW8NGq1OKwMi0RlvTA2MIeYC6CE6vFk7TuHkaKF/cWx3RO9U5+/2FDmArgSRIW0PIRgMX1ECB+/UWUnKHuUEWXe2rCiXTZA/SezVoq5SGCuOYEdVscSXBun2EsShYtC07wGEwbSLmP+yWA2qWLKqbHxdunP5czBbtlCD7ATdsktR0Itw1HaiYmGXX88bl/FEHsNHhZPrSxgDzKbRPU8gRz4UXwTv+s9v2rzNz7PuT/FQcSgAlpgK+qQGQxsgu8A+ci0pFg+v5u0LF4wkgS6Y+SibCzaTQj6L4cUYpeH8oG8yJkJVY5tYnyQm4uaZH7YJQ+7V94hXv+wNKNq/W9d1P/75PfGn9/ql+yMMZRKCt2RLVPkOS4qy3O0+M735nTL4Iu2Kt4SQLILbmqOOnIeaX7TUbyK3H9MLXO2uXEpWyFNihj6Iq8BiKiMeYj8WgtuovinLrWc/tjcL3+e1vpCxmkHN/0ZNgNuLJuuP/2nnr7lSHj6Q7/Zv/ctxu3pPQV7zjNxe7Rx3PbgXH38+II9Q7hMOz9hb/zNn7f9d9zsKJI8XWKKNcOlCenNIU4Ay9IjQDcGiYvBqshOWPew+aESn1obsztKl9lVsC1jzuYAoqLE0VxpkSegiKcuiW929NH1EQTCIbDjkbBH4J8nn06QKOiUbaXetempaTu2cMLmfvp77arvfi0Ik0WdTUgRkn0MitaL42bGThlACTvE6sUSkE7SVLTRinZTeMUQHb4P5+E78Eq5EXkvgPVx3CP31aAyMDRSqLo0hbuA2ISvguiKbYVAGDXd1sHp4SfQRu5rxLDpVGwKjdhCc91SK0078NLX2o3/5/fhi0ngK65khtYrnSKYBVuT0khIKFcgg+LyEmkFeuIdQ2S93BGvTEzbWxLjdpXMFbCoHlm0wVL6IkAUEpjjkxJrqqo9UYsgsMUQ2PGUMIHA3iDMJXZi2fxCxqa6GVtBZvuO338XyDZJKhFkJdK0JxMY89hSOrieSXbzEdIDBL8Y2jfImwX5JiK6b9c0cvb6RI7wJo411mydpEUptJ5p/B3BR0f9XAAuFNIbJA/d4kmIur+wIbDjkbCEOvlQok60Q5qwlpRN4ls2/7s/aelL91oLL4u0HDxBGD+NoN2uoaVsk4wI+x/FSPSJc007VkHd3bYrYpP2OjRl46JySiqEzyExuX35EQQMVHcC+xS+x9bJYEDmGGbDqEUQ2FII7HgkJK7IvHLVekS6N9tkTHvNbXb9D7zd6mVYy94YISsgHupntNggEYZfWWjBIiXj9TBHtPHAiOc9u6Sds/+tl7UpvOfFmvZw5e/mxzDegngcGijJAgxMPsZ96c16Lv5ox3PsW7pAos63HgI7foUFrZpNj43ZHA7aR6GKt7/3Z62yfMSyhTnSImCvKxAcRJSRRxJauVWLNe3ViHAH0dIlvC0mY3ZlZ8reHJ+wWQzuAd768iOtYufDIoXypi/3uQRobEk+rGkMRE5ig8o5O9LWT0L0hAsbAqGUUI5bp7fNORZPj+/7hmtPP3Da3wH2HDnbSh5zzXm09AmTjlcmklZaqtsRWM7XfvA/4iY2ZrFl5D15soyTzAcnX8mASgkRVKBi+HT6uZQlFj2rrBy1W0mRcMt0nhyiICAI10W5owRKCoHxXf08+FHaSVMEr+u8LZxalHg/WFdcUiGz/I+mVTliOlyskBpFlCeUihslUBPEbsqRGBqqKA2Ouri3OOdkK5LrXAcjdAKDMWfYDJyoanWM01niFpPii+lPbLJy0sjdRpDXU7o4GnRlM+G7x3t3+I1TiDvHJbu6nb6+tCbUBt/OljQSBIZb8vqzcPYHDL/77PcNzuhtQpFwcPFWfZ8EJg+Q69eANA+Ox3FbinN84tWvtOKB/SAOyWMJO+pB0dqkTPBwR0uUCFOqcC9pKpKEIdXXcUYin8l8d8qeAyWcFBbJBY03bmn18xQtcGeX0PeQ1gDhUgSGNnCtapOvVEmCs6Tmi8HyypBfQbOaxVlYsimWj36fcr8SsvF/h+cl0ODKhS2uDYeNQEMIYJdzXL8m5IraBQ2BbUfCM0F/MzLmpP2Mley6f/UmkPBii9XwgZAzNo66PVxjIDRgL45MZOPysQd6BOR221WUM4G9LJW1AyxyMik45HDhLpgvQB/+o98+Kp5pCCePpaptq+MEHhCRXWLbExLVlH07gVMxppL4BNpXUTA2C3EIyo+iSI06/dfw+Fc0gJLSinIKMX3Gqd2vQ8RGPQ81xmVr9N385HCjH+chBHYEEorqsX5dEwIOmo5nlbru1bfYRS+7FbkP5cwKZAS5zcOtXjZ4kbgARImRgoIYT2s0qkTDx+2aIGtXgnDE37pIbOlrxLbCLIIEG0wECBLWPBAwSyp2IUqAv2EHDxwf1rcpv0ZSKE7XkSzlSAyxbS0u2vJXv2aNrz5hKZzI03j3l5e4l5g2j2iPGJnCYuTVjB2YtvjsmI0TxHpcIf6wsW6X0Mh4Z1c6ADAMuIGwMUbnz28IbDsSnrLQNhBQFEVI4xoZyQ5873fgRD2BppN0gEIk2EE5Zcfw43TyFbYEn3yfHeridYiuvyw9Zm8gJ0xCchU+ggqw9UBcobckNMfy4gx8DoTQGqQ/zGTgO8GzNQyPAQg4hvMqqU9A+oq1vnbITnz8Plv5h3stt3DESiBVnsRDHbL2PokdcoxUG3FUt0mOx+7zKahCMiLMINkMxTQLk8iKdCwk5H03y9p6d6Cgr6jtcghsOxIKvkJEyUzu94Ak9v+0xi0328WveDEXwdAREeFDjZRgF04P6sPw5XaW4f413NZSdctigrizR5JfFnWdKriumKcQmhgzfcWQ1xTK0mPhK6oirKWTOVsHR1ZgfcfRmJKfzbqEx1Q/9DE79oG/tfGlE3jp4yiMLGoEAsOv0iUKGJwHLsYE0iUjtEsMLIpHI+G+1VEItTGtJMlxr1ykjh3dRPkGyogBTNyN0T+7FgLbjoSbKeFmKW1w/MD3v4nkuLNoFjE7UE1JbmgBrmmoOUFEyCJUUOaJeptckzh8XpeesxtERlnUaXm9SLPpKEofy31kOsfugYScdvbAYbN7NF63cQqb7He8b9tqH73XnvmjPzPv0NM2jqa2SlhTUun8yAQtittlg+hiJolROppbqVuYw75JHhRkxjQO5D5KnKwiBaTNRdnjwmok2DI8vf/mFlHCzdDYvb+3HQnPBFpHGUW2aFe84eXmNZHjAjJZkwAoaDJkgvt8co9QwQXTBKkH0Yx208iCGB7uJO+noqp7i2uWmCDnDDKj0iWoO2fIlxyoP/iAAi4hr55ztpYjlTvpMK3x5ads+Q//u63e/0Ur4c6WmiFouFHrZ40GfTyX81IUnY5RtnQkP/Jc9KlQRZ4JBeYlcCKHCotNlj2SsZLp1z16VFX32cYfHd/5EAhFws2784Ziv59UZ/Bup27eg6Pn/L0Ay3htNWNfIXv1Faz2lRjeMdw9RfGesV9/J/IUobWYIwJc1uKkpVcLCP7sKfUzCV6tXjR/Fvc0smq9Ob/H9qAoqeByli8S2EtdhyRpEE828KNPGftHFCqoarMyQ8h3VOzfcVBnAkMhw7FqkjT1uLuV//Sj1vzjv7fE6hJ1DojGEAGGssWgxl2omq9YP/qqw/LWcQLX3xNCdhCyjjdPnARTcbHZyLFxIaM2AcwVitdwrnKcg4i6d5WXjiJAuBmKDS3UOf7S2AZysu4U8ZSeF6MiZyXl6qMr1dgUlAFbN2114320qajxNk7tpZqK2ki7OEyEjmEw5K0e51n6H8D0LKeB49cHOJDZN+OE07hz8+Cc+tnMwYSd1/WbVqj+/Pa3BOwhWgpXzKMGNemS/j1BqMMayXhuVNnlkJZEBmySBXtvet6mqDnRznYN9EPhwaLUugxpFVjZAhEYrBnqF9RsirLPLnYWJQxWBPvae95nvS8+apn1RZLZsuzpV6nyhVCSL2MgmNK9K090FmVPFnOJmoKIV9koxii5JsqoyQhIqaD0+cqXqUlz3fSxqS83spileZXyhxgscKm/uKUx7f/qLwgt8IhyOjDvin+2HQkL2PXqBTSK5G2ptqpuoWeavq3fcLHtvem5JuvAsOancdSur9tLslfZHBeWWaBJPFOUfJoEy1C44a3JVoj531HbIgjo4fDtggm5d/F9f2fxv/gnLAwqLAKolIxI3ixKn8BzwCxXnFKVgrLaUtn5JeuJIMleOc4g1qEPHl4uag3kxQrs8zLUd5kNp0aqDEWOC8OUJjiLN08JmXEqk3ep//LIoT3vIXevkFAoKARUtmndEyGiA815/8+2I2EOuWgdjWJGshFyUhH1fnuN6rqvfKGri+44syFgbtuCTWKOuJqFKQqW5o3kNyrXM3oMbWI9q6S0l/2vxA3KBK2qSSv/9Dlb+pMP2aQETDSkqgbrNKwd8pGqYxCmx3hrDDCGyUEmErVAGld9pCSFNS6QR/NQbcX+afmQfWL1iD1aKWPED6jmRKUoktesK3cKfSoRVQwEVk0LUeMJMoMVqebkqveqX4d3IGAf/xwC6lzUzn8IbDsSJoh0WEbrWYRaJKkjr3W1xD83v/IOp8QQjRjWus1luzt7vfP99HBATYm9lVcMt/XRYtjdXAPVlUxTIAlsvYPZYCyFEuZR++qvvMcu1RonIFhyZFtOpLiakZIUAohUhrKlDlUsYTbRI6lQQRpEij4Tsa8QqPurx+0rK8fst576PBsDYVixDDUrMjZBMPEUmNTloh7Uf78G6ovi0bGcTgUAjq/Wy7ZG2TA0P33q514DKycILIunCLEQMmrnPwS2HQkJmrcECzLBwpbZb5m08/V90zZ3/TWIRUrvM5yejbOIn4/wrOS8cqJOYJzv4qfGv5SiDsdEuZnl2zCtLPwYeWdwj7bHfvOP7AocA1RvvopvqBRB0j2AjuwJuMjBhorayvSQ4lwS+TWJAT/AWfxRKgN/urJkH14/AiIu2F2lq2wVFlTZnhdQ2rSRNTNg9XgqbUXKd6/jDCDViyKq9HHsLt9Oy8poJsR+CjeFcMI8felvfqpWZtTOfwhsOxLWYOnkEN0iFrCLUzTVH+yil9xEDKAq5ZKcyZfK4+ztZZn9rMi+7KcMah4KEVUBqnCQMgbhqicteChnh2iMOKkPj773L63+4APm7bmSkKjDlibDs2RAUR8PhJejTU+OAxjus9LSyvYHS9siEuJjC4ft7xYO2f0Y6FdhUQ1zyiMpVdkD0dG+lhin8KYJtavjUXqELAD7SuO8uxzEqa3At0ekBjjuvGyUxk+MAGh4kvLpftW1j/APQOyStu1IqEo7E1jNaxjjOyBkQDqLK158My5qOGhTQwIObmi7PV60dRQnBYJ05TgtcwOFlfCI4bY+4Rh6vzSUVdjNrgqFfuR+673v7+1Saqg/fuIhuzQ9joIFraaQmb46aEHXpHYHKcdAWP1HymA7XFu19y88bn937Ck7TkbpSdzmLqUGoujq0QQ1K9By1jeUOSrt5TrjC+bbFjtr/WEK32Bv5eKGmIh8CGXWtRueNoNX6SOkM04Mfa/o5PkDgVOQUBM8aAO7B8r1wSF2343zG6pznVCC1mFNxS7VNi+bzbaX7ELXFshF7k0SV1eNWbERt7lXvww7ILY6bIgB6epTpKmvlKkl71FLvpG1Rhbq6K/Z81N7+cZbDCWJjC1JJxnyMBDbpaUQjoQ1qJnSoa9IxfInf0Hy2DKsqdmeHC5oenf+F5UuY+8rwUZOUuCyCaLUYJ+LjYx9Hpb3Y4eO2SePH2cMGbsEV7UAt7T1DtV+sFGivO03gdGB8uQPd3zDxLZxkb4ULwjCu2v5SzGPQkQQUnY41W1wZaGRo/u2QLrVtGgmAYurLMUz5aw+mC5+bWFTTIpaf21otsUua6zKjd1/Z3fBGf9xbPYZz/QPnqm+nzuzYb9zzxhy/8aKHXLF8PU75MZn7ZSmbltbjAUtRO+52VCIEbXIYfEGs6fadaouFwuQD5Hf6pTESqJBbGJH2yuNyahNfeI7k3zyqK0cfsYylK5u4JidoY5Fu07tQmyWMUwTUwo5QgNbpVxaLjvmEkJ9rbVoH3zykD0FJVxRtUnsgC2xkyhwVF5bTttKsxi1CALDILDt20AMFlSlrXoyBYCCyYv3EKJEXjSOobzXITSJqqCLup5jHXKD6oxYtqtlsxuxaUNtQ2V6f/050tksgfsede94rrZwR8RhRznmuEjGWNZBymUv1Zv2B8cetc9UT9jBGCaOPB49mBQUHyjFjVzkehjyoxZBIAwC246E8JxOcdFnG3zLPeciFjPBucI+58IFG0Zcng+VCVAHxokVbOOuti85YVOyxY3acDVLKGr+Hz+NjRINJwHBmVweH1Ui+nmmeCuXTp+NIKD67yRy4kK9Zv+w8IzdQxHLgKj+BMiXRmOTAOlSbBSpHIIsrGhdXi9RiyAQAoHtR0IIDjHxzjzWww+yePWlDuEcMWJ0gZLPoL1RZsMeWtQEdclbrbLdmp4ciCEhrxhyGjYy/thRC9Bs+lRjUjmuFCxoQO4XD7Y4wLSQ4FhZrChKmQTa0o8eO2gfWHzS2m30sBTQS5JmP1nBPMJHxJuU38i0FKcJE4hChhadvjAgsO1IqMIeg6RFSt5UuBxli2P/YOXEbYIAqi/hhDAd4rcOXwtSeIQRjd6QOD96v3um5M8k9dLBcvqWMgRVFTKdoh3S+aLViRk8VivbR6CADzdrNl+cw4e8YVghcH0jxwyIJ0N9FXe0DvfKnS1qEQTCILD9SAjJE1JJ+Avwt8zumXR+yzIDyOTuw+YFKE+EoKol3yad4TRR9k75hyw2eiO86BMPWBv2sUXEhNhjaTdlGRRVbAtCyHlJLOlVfv/xk/fbo/UKtepzyH+wr9Rb7xLh38btrcWnwVibCJA+xn4lcopaBIEwCGw/EsL29bEOZEP+ShZzfcM0rJ+wM4bOXWWSpbOP4VLTrNZsb2rcechIaT96g9odOWbLsKU9NLUtnKtl42hCAZ163MmFKNwrNVvH6fqDhx6yOlTyEj9vK9TAaKOQWcN8sQhlXMEHtCayLrmQwWedsmn0EUY97G4IjMwvyat/WOszj6desfmeIlRmLUtuUbKqNeMHkfn2g2ykpVARwg71JWLIZrCsXeyDPSIM/HTXbsZkkYZKxWUN7JPRUx/wTfzVpcR2gzLZRVJkJAllkneABxsZhzVNdDG8QWzbMZI0UQv9tz97r/lje22mHrclKvyqnkWrukGNXb4b4o2JqleTO54+ouTDWtjw+7GFyg2nECo2DFh1+AL+lgsc+WrIMiCHcx1zya/ILtBeg4IDzzjjdoVONQDtDTxM09V/JtdLeTt8eDK5SiTHfgocUGJ18G7wcGivQu1JOEcbbQn1tNluYdu81s74GOA5rCkmclgLG//A3r65j802c9nmQ6Zg861b87sHOzoAlMvFAhVxTQtuEwDknK0mran8nJ+tprw1YnvjbnEDHh6jhToYk+RTlW1+rLKC6YIAVswiNZRECYz8Qortbqq3Ia2xm9hNMJOT+cBRYtQxDsCtbzlauCiVwcFRO4/u334k7LKAtJv4QgK2atkHtfCFBA5BNUnajJh0rXkZ9zNoUQcxdaPOYQ83M/liQk/cQ0RRWGU8Ugimh0IGQMJ7lw7hHgfrzKEySKhojY78Q7e5qZa7Elc5OyZD7hIS5aie28z0Ds9uc5wNjuv6Ppk1/dl9xAXX2/ZTQpBwQHUcIqxu40IAADUrSURBVIKAan0kFCoIKXRECx7zAep/1Q/cOKgTIzVV9e0H6LIJqF9hOkjomv6GNa1A9e5deoYAXZ3zYTNhXfnddSt/pMePfLOQwVHCjWELITVMHwXTs0EJBWl91MQlxNmQcOyFO9iAV/9U9O8IENh2JByMfZDCYYCQDhk4qTAflTBTLYeAmL4slXgLSCpiwJ6VxmKVIkXUV411tqlxjEV3FFnx0eqytbhOqW08saLfcO2m276NP5M4nsvjT5EdagP4iaPYeKXRRjMQiTYA49heZY8TEo7Wc3T3BgS2HQk3J8LpbbCmA1mw7+jNZLMQPP5R6vsclDDulB3PzhLwi1L+YFyX1oKt3q05FphjuwQklB4P19ZtDZNJQCBvCi1thpLdDQRTmU62u+Wmxhii5D9MOg4x+hRKMuGzgYViDAY7kyih3rgHJRR8tv/ttxv6z87ztx0JfRndWTzawbtS0iAfut1cC4qF1GdHNftCjw6sqNzX3NFnBQKxEi5q2B9bjIOnu1ykCugTa9xffChl6qtEzCt1YUrZFq2I506VuEW30J+VUXzrneRnJ+CYpTkFCZlNOY675hDmWUATISFNyDjoTW58DuEFo6iNDIFtR0I5O/ebtKHsstKIuu1XG7kmmfNaAGgBhJyqKc+238ePjQUyChSUpkL2wS7bvLxc+l2iEd1YchrD8Vbdeb9IKRRnA8hyrZJIKbBiu1uKSlEu4YWA56j5BmI42D0LSAJMRAE3N8ma/bnZfDT6/a1CwCm4BOOzfRx14Ky+meaTH2kn3WfIva5PkCwY8klQ5jqp5L4kjyjZtK0+8o/o/3NETmATJMjI61LqulAiAze2OoJqx3CSVgVeX2l7KbQyajsMi5t9wR1U/mUcFB4knJEQpiWcBAhLUipEHLePUoItHx+3xHLbWpgvy6S80ObRrfWTb0gaO9tHetZh/+EiwL1n/8RJMLW+XiO9/7hViN4/Uqra5XAF69js1nppm3jxbbjOecQYAkPc5YIOm0qc3KikqfOBT4bM4BzC+TyF1w/udKR4bKJW8oBvcC5ufzgckL4VLyKyH8CZ9Ai2Tp5YtSapQCSMeuxECkRWlrkk3ILS+ncYh5BUyhtlkxv2Odu6GxyXrmDYZ3DdWb/ZhyQzn+0zrG93jrndvO5P/33W53Kfzkm1OOzDJSIz29sU7qNFIlVLk8VVO7oEDdKC4hXOsJEPFA9u1HrLEdsYipfE8y+zFP6iLZA7j7tZTF4ybP9JfbPwGkRPtEQO2HjaLGRnMGfRuXT6Iz4/7PZGvWFT4xPWpP5Fk01ojszDj6wt2Sz5dyZf8cKw29nMyJGjq0AIlZTrL6nQ275+ASvETQPvq+/OKkHPbFxOblefjnugX36f3kbfIk/vcXf+ve1I2EW+6CLHUPeTun/s7o88zWSTTEmkZSDfbMBenKvzBPvG+f6WZydHh5mXPMfSqbwzgvjkuVEQrxy39TxVEm5SV0IUUpS/pfGikPHJMSP2dKtbF6RX4dNuA64At70iTjwNBRqzeV3+9rtDH98lnErGHfmSO40y7zCYdIecIT3IIiFwi1HXd+/QojsQMK6vixL9TtzcOMqlvT9q5wqBwXyc6/XP+nVdZCztmHJNa5OZqfrwUywSlo0UNFAft9Oe3G1ZDBsI6KS3Z2Gme2Rni89OWvym6yniwk6gJrYLCtJi99fC8ljwotKigMp904ViCgm+HZQwSSrG5eo6MPFsPJGxChR7NjthR72czb/kBf3xDvsX31xlI+nK5QzUOKn1BegOKYfdq3O8v9tqSIYlbqXzNIHPwEfz46z1sJtuGhxV7CPrYM7ORB3DHnchnt92JAxY5RpER6wSs11/6jClr1f6C9yRov60iNsRAko2Pdk2/Tx57Jv9ofw0mDzib30Jpg82BAajCA4JywG2yRgPHSP3qBawFiNSkLWhhEmHnd/sw77562PIXDVk0gTRGgX2iBVlhqs0Lfvml1pqak9oh5KsYapBH5CR/1TfQrlTBca+ZTG0Czc/CHx8I18+cQyLPTKlFEHONtmfBMmA+ggBOyCo5mmwYYY/4cK+YvuREPW6ItIbaVVIYvKWV23x4YNkkAA5QELnACtKyGeAiNqdHSV8FubOR/GhwjHpF19r/v59pEpkccFyqiUkE0JG9ucnnHIBYoKpgtT3QC3J2E7ZEJ6FsZypiyZJpgqKcSRMqk1KjVgqY09DpW9659uASUgqOjocJ5U+vulYeMRO9imho2ycU7hWeBOyCam0A/L92CFHCXEc5FYpTfoIp36URFnhX5ob/RdpUMOhqyvOZRbOradv8aogkUArCQVE65hja+7iFbP48FPIZaJQmzrdQLwN5sedEGKO3Oiiy0YQJ2oj+y9ebgnkQZHkDgtK1ZXY1u3isWnnGibzhDKd6ZyyzGnBbXWr84yC5FLY4TK+q2OVnpVef6dN33AVShc0lCFtIo4JA/j6G/GZ2mMcXIVT5wo+riPPuK2vrVrw9DPcD0o62INq2iDdGOhwo7n6Gvx2MuLgYPR9VghsOxLK4K0kvSo3hrWCRp33Iyf6deDhZ74+tezmQkQd2HzwrK92bifEUSnzZwJ5MP+G2yybxoOGSPo6JwJRRCjINGFMjpKw4BwS6npRwm8DEgZsRnHMDU0UIfU0mQfadXvxT343GflVupuNKqTlUeo4tz/G2p9strEN5Du3LURXwcwCj1qFlMrr1KwTVgv1Bh1tjEHdbt4kI0q4AZiQr28KCftMRv9fGdXdh8kQ4M/2cTuldsuzfNrIZEdwjb5qOWGHJ6YYrmfrf/rXpAo8ZH45binVi0c5YXVKlhFI+0xsxSFjGrtV+VnQTjZJzjuBBrGXztmqX7LCr/2yPb28Qrk0CpAi+ylG7w4ST/X8qpWlsu3l7JJGwU5QPrsUr531vQfwkAPAsA+lZth3UEiB8DXMMh0QC+c4qvrmLJuiKAy7zuMZ2NBy1cYbZHT70R+wqTtebD4bQ1oR/Thsx6DkntdkUyDbN3GXQhEScsBVL9lrqY3hUz7Oo68EJUtVyEaaUspmUFI8fPqDDs9gRCUyC8QefIyeq+bl0Nbyi60Ij78iwcv89kjW2qoQTxm3968ftyxJmbW5CjGHfTg9tImaDvucbV0NjveZPb3n2T5DH8/Yh/8nt8uB6+Wgp813DI6d7Vu2yPBZONvdz9JxAauYylpddjcQi7IptrKwaGtfO2YexXi7mAoUJaAagNqAK9js6lwneTEBizZqU5Y0p0SgoyITnrho2q78qXfa1xorrty1ZNJjBBa/fOwiy4IkPRbaoykCecdLVl7DZjZie5ykVUkUHZcni9SdiFmZWvbH4w1bIqNcdXnRGrzjpV3q/ZImv3Xbc+1573q7rSydoJ5FltyrZVKdJrGTYy6QEgmXvlaKhFM+la1iFSuQLHnUJoRVwdQmG1Ljnx5wnkVtfEdTcAvKw+MqQ2mD5UG+7Bmwzg3Cq2S++Xaw66O+3064f/uREOQroWyogAoJ6gom81lbXzhqR0hJL/5U2dZkkwpiYCAxfNUaaSbYYeU1Q1qlkWEYYBdUKgun+WSxdTBYFr/vlZZ+1Z0Y5KgE3GvY9fGCvTkzb1/BWyW5Z8ZSq6SxOLpmyf0HRn7+peN7rIoZ4VGKkJZ7dZsl7eIekDGOQXwVUiKn9hTJiA9z3av+8JcsPj4D5ctaN0kaDgqqxpGpZUsED0BCMAYB2wU9xyt2Y0KcxWitJexCc90kit//7AMQUryKlJKE/VsGe1F8PVsa0RhUtoK8XMXBIIlWt41SKWrhENh+JISdUjlpMkZYmrntQt6VLPCZv/kko68jnsE+aZ/1tejAQz6L7PpiUWLsuCM3uk6SdVtENRCSq4ISLOD1P/m95j3vZuuWSWcPZZmfZvGTY6ZTXqNkdsHWimlLHwZJR2yxMmycMnVPZ6xbonpFj6pNVGoaYyxT2SwVoxJ2D/LqW/76d9wGUD/etlJpj9XWjsOq96MnBAwXOwjXDliQH9cxQ/h2Y0p/jdZ8seo4qzc+9c+WJMGVFyOxFd0qM10XmyUhxQBOiIgJgzCzJzp1q5OzVen6O7DZUQuHwPYjIexeA4+UrthL6FEVxUOBIpnLn/2iVY9gqoDtkW2LvZaP1N4ZewYljkM/pyAIf8lhVygkSVSwulLR5o5NkPpJIEJ8ZtLGfuXHLHnHa+wYURQTLKxfnH2+HWuClBT6nMmWYKFH3wQWZAME6ceRBQMW/EoisHIhjeaTd15dtYV8yb7vc39ihesOWO1wx9ITk7a6uGDjuX1Wq69Zm3HJ0ioFk1j2GJS9012xK3sFm30W8oDI/1O1F+3PPsFuhXwuiscTaxyLSb2quXFSgZZSzP6ZlJAyZ8gWqXSWUQuHwLYjYQwZoq7aDUycUE2sYaKAA3LluB3823uRwVgAkClVM+phqIuhnHlyQwbxnC9k+EsOu6KrUAgekYHq+CRJEstb6iKM4jpXnR4DEX/Yui+9xeaosPKO4oy1C9Si7y3b7FLV6nvGh3V9TufmCmOuItXxyqq1hEk8fxGH7aO5glWvut5e9Hu/YPM33kKFKtQqBcrFIUMWJ6ds8enjlsap2wENqiNbp9hSfsGOJu0unxCncxpByEUoo/yVZfO/9BDpHbEjYSZRPp6mitQggzrvGebDhxUNYKO/sr5AVWPKiotL2fbVFfJuO+T0toMpRSm0TgrNG+yMNv8YGr8qdfuUlfvg+++xJuxaAMWLif8k9WE8yNmxoGZNVQV9FpBQVLBBAl8fjxBJOsdW+r6R8qIRhe5RP/7qn/shS779jZbIj9urvHGrT6BIkqJocWXkaWyTNtHDDJEeK1qOGhd+tWmdNFTsO19lL/lvv2xXvv6ttn64THQCSRTHAhsrjtvikwctt3+WyJI4BUqJrEduVjIqFRPuJFt2Q3K/HYAKEno88vg8YN7+u8+zOdQcTum9pcySAkaUzx3UVBDFIRfER9YWKW5MZjyQ0HPXjDyEXd/BtiOhFAs+Jgh5o7Tga5LUdSijiEgR8V6/9wFSCtadvCPFfcBFPkmeGjBIzeZApznaHEmNns2niZSQWxfs6Mw0yhkIDBqJGVhfHw0gWW2s+COvtbH3vtt+/OVvtGKFstloaZPcN2o7iDYzy0Y0sVC13sphK07N213/5gftrp//YRu/4WorL6Ll3LPH/ByUDnmrvHTcZub3WAOTRQzqnSLlYUDeUyGhcheTt9HuTEOleJkuyp1R2yobXgd5kIlBZiaYGc8dYZ6zAYpyO+OtKCE0GLb6OFWrEiiXlOsmQsJzg34sm8r/ktjAs31ONZefqdM+G3m2+086DJ/pVo6p4q28LzzYHs2nkvym5MDGhMohZO3hRbvkO19vaOQtKK9j75pA0li0AyzAUrfA5CNPMnpJKkLkAIds1xF/QFOgqFo0Z2+sHa6HyBLcy9IF4dz+jvaVN9dHHCIHKx4xhGPYCN/8Krvy6hvtC48dsQe/9oztSazaWqyOUqlDeBGeLSiN1kEKViGubSh6uqTOgE1LgiRJepfcq0fyymgUu3Yp7OcSrOj61AE78FM/aTf9p1+yqbtfys6QJX8oMuAkmlAKqAYNHM0VR0kp8GZQZbziCqDeUKYE6d86jC9R6NjN3Um7VZsa2uRmZx17o1jrIQ1wERaJHRKKhyLnEFxHScUR4TzW+Z34h/vs6b/7kBWQBcV6phWVAeVu4z2TgWXuUIcxAeV+Ci3ukdWGvf/oY2QkN5uCXa3jUKAqVcOafHLp+eyfDdHjbOtLsapuvrV4zvCRHe6s9/LcsOfr3mHN9X/aM4Zdf/o59a91t6PbUx//rN2+csTiYygFWvhQsgj9bsk+XD5sz0td6jBGtiqHTFrdGK4HbRAdP/j7W/nuLBHEOqUcNDJ/o5CH5XvpW+62wy+8zGa+9jn77H/8nxb/6KO2uv6kHQY55kC1Ira7GhQ+28tgz1sieS7KDdaiAnGFeMp16vOBhtmRl7/BLnnNi+zy199lhfmLXIBu+whLA81nvJBzztoyBEhw7dU5hgYyJTsgSN7AOB9DVuzkK8hpZjcE0/Yy/F21B4hrSBMcHdYocGwZxLdmwbM07ORFsJA9WNngKCk95ses9cnPoKSGraUQjoqVSlGm7wzUjt0FmMSx5bZtD44A/2n1cf4mSwEraw1bIiNxCBA2hgv9/I5Hwtb6U/bgf/5Du+3d77IT6/hOzoKL5ZgdluCPJwiaHGckZm06lzZqibIo5MvRp2qjTrA3k8BHZKPJFFBGXp0s2PPmr7S1uZxddPvbbfmxR2zh/vut8shXbQVbWusTD1libd2eYjGmi/i/lIl68Ds27mfNm9tviddfb1OvvsEmr+d3/lor7pmHymSIW8TrBYTNjhfdplJdrUDdoeZkKA9QfLSoztvBhJJK5FnqvKgCkaFESZRF84Q2vQGSrcrAHolwxImmcIIIa26n5586n5SoHZYgHxeYIA8KUR7gyOe+YDm4EkgrHct9DcqFAihN9H7AhgJGUgKOuhtQ5b9ZfQpqDe8DJV3HyXwCOXF0hjjsDc7/8950Yd7Nw9leJYydDDsvK9+w5hIqDbmgAfuTYaG95SufNZu8FnqwSvlszAMnFuy7ZnN2K6nwWRf9xpaiSdefSQ7K37OvQNg4/y18rdNFwMIv4AGiJMFVZLF0poQigjQXlcDeU2nY+hiRtlCeJHUzuriXNKpr1qN2RTyTsLUTS7BrGRAF00eWZI1xKAiFb7osdufTOcagSVnfwwOhwyL3QdpYivM6tgq1zANBue2BnB1Yd92jFBIQJCcL9pon7PLcjL0BtnMe1tZLK5IemLfgCfmSAnNoU2QEfStkqwrvnakBQTDYzyXssZ9+j8U++0lMRq74OMe7VoFFVebxEtWSmQzHsgfsfF9eL9tbHvxHm0iWYJNBTMw8k8CjQd/DmtjBYU3s3rDm2NEhF4TdH/r8sPGFnB8yNHdK4/s67xZ29Tadj0+liK5o2af//X+1TIlYvir2PIbtEcZzb2/V1XtwYp/mSouQL/1kuYKco79evhFYAaHJ41sTHiuS74bcLaI0WR7006W03YafqcSRKv6VndVJyycuo7DNRVZfgPrNP9dypStZ5PustV602goKpxqluMme2ksVUcZg8CZEycv0LDdGNjfkyE5lDU3jqsWmRO1Z65J7ZbqhClQaU4kHlel5yMfJNbusOGVvbOdtjn3AQMByDwUPiBKKfFyu5lh5pdLnUW3gtYamys+lrPHAo5a59zNWwOfU08bBM5XaQ/GNHhTTuasB46ZgTBXlD64cRG5MUj5Ou4NnObygZNSPWjgERl+l4c8Y6Yo2LJpHKNGR//cv7NhXP2eTczPWXFuz9HjGjtTk3RI4xYIeIu2dor+FglLWOEXPSE/nZhaeFRJWQ+Mo1zryJlkS39UmxWLabArpRMVug3Jdg/0ygTq/hbuY/FupXGP5S/dRzYnIA9T7XgKjfKFrqTE+WeRMFCdxIRY2tXgeOSzdsFp7gch9fEkRcOW4Lha7h9uclDK+CBTO5u0CCJpeYWPq2rXtSftOnM7h0EFWok+ARb6DVIbhvywEOAck8LCqB5h7mnjFZABYFjZTGPnMb7+v7x8KS4lrDOYjNLCQ/yzybgbXNZdnx8nfMVtq1ewT60dsDjZZKS869JOiH6WwjFo4BHY8EsZrhNBkJ1E2LNonfvFXrb26jmYORQRsXwevkEca606eca+KRkAR8Vp7SmHoKGQ4DIZesZYjWoOuZMMUmyWtvCIR0iAPLsp2nDU6jQ3v7eWUfW8zZ2MFJMjEEWsuLVlnGbaxAPVEP+IrYWlMNk9QubfG2DnPZ3XtBBpGiFhqDOQsMW4cpTnQpRSSXy846u70i7CqPeynPrLlBHa4V8am7btJ/TahKlAgdRVtTBGTCporAJByMjHi2jk0EDzrWw3SDs5bsuFZ5a8/Z/7Dj5hX4Agsahd2PAbiiQoyaJdVzaX6AAmTZKX789WnbQ32W0mUi3jsdElGrDAvl5L/HEZwoV8Sy6UKvzQMCGEmirDzYTJjWMyZinvV6ymrxtas9NAT1r7h+Xbp7TdbffGYxYt7LLF6xPZgRB+X8oAFIuOy/E8V/6a6CaPuMqq2q7ApbOBO29cC6aqkPEyB7R5yWx7biR7dzbVtDnbwJX6R9Bc5W4R6Sp7tQRl6yIBBA0g0SAuhOmPKIagdgnHmc3uQD6GsVdhINpEYpdlUfNQnZEpVDjF6WDdDP3EUQjz8ts6MfU+yYJeAEC1C5gOP9IPIiDmyr+FjzTGQgPGoerBDQu1IQ1oAm3kcjWiOXSZOP73luq398u87TfBiF44D4bMN+5mAMgcoYMSWSkkjfqODySSO7Pmri0RXLBPlgexbQN1ahnt1QcQUdHVhaEOer36GNfa+4S2E3Qm7f9Tnh/U/fPAwHVwQqpgJmUNJZ0OfE2YmCLt/nCxo3ZU1O54nuLYWtxVsU2/59HstuXeeJTrLAl2xn+qUbAJ2ziNzqd4qBYWqyUbWGnd2taEDHPWklD8DGAAKIaQslzVYOpn//wNUW/KpQ0YuZanDY4KA5DTF2RMKI2SkCzYP1WJ00ixsauCKp6rrYzaVLhIRMWY3Q+kmnQ2PwzgRgNuhxF6iYkrIA6LLeN7FFtiUbY2GoxmbCwOG4MFIw0U07dDvvM/Sf/r3kGaoqpQvwLJF7lUfGU/UsFMnkgQFU7e6AoXP2x+sdOx/3PdhWyDgODlesCYpEQsoZBIgtPaaltj5IS1McTKq4kWwH9Yktgxrw8+62Rp2O9xLWA+AOZwSDn0Gy284EoYhWdj9NbSRNlO0zErdOviUrqxX7fijh+3W73mrVZtk/iKJ7VHkrRfFJm2ZRZRdZ02zQFXVt0VYUkLhPVvYBGQHgcGOzB/aXfXR8dtBoCuJ1s9gwW40y4QBUduJYOB4ARsfbKScrTudZWTBE3iG8T7tMlQIlhON6GwmbW/q7LVbYyW7FuWIAnw9tLABdrwqcmOV+ZWVZlgLMGOIwnl4uug+LboUY01Ky4qsWcFlMEVAsYf8tvqRz1jn9z9oa3gCZdggOrCiLVwDU8DQ1+7C5qD8qzEofIx3qmCM/8BTT9tB8qBaDuoN3D3Y4zS2SkV11KGartTdkAGGLtEBXM/SR9j9o54/y2NPHn42+t/aFXpyqN/6jzbyRZO4vnmch4/jtjWbJ+zonk/bp3/jv9iNP/vdyIcJexwZ65HEtD2HhdNL1WFdC0hGKFOsjO8NvNEWNgWuyswixnfAWov6p+EFOWMpMGWcxX9JLm4vyc6j3AlQ82OVwM7ZbsAyU25bm2Ucli/NQi/xmWK9S4REBOxTSc57IihoZ5xKHcKWg9o4U3zIDMaR0XDXwdFP4mUX9hlEUV/6MEYMI9YiK7f3BLLpL78XFj8HS8nVIPk65oWuzBaYIAJiyLiSzQ0+Qy57xQn70sIh+/LxgwT8IveC6EGNjQWWWrUxSAzpgnqh9TwoasMgsOMpYSKLqhujdWcsaWkWbRoKVyBK4J//1ydt7lVX2cRlN1gLR+ZHifu7MyCBL9miYJgsjfU5hx8lfNWw9x/5XBuFyUk1LOtdlF3UX4gI/eBfTAm4lvnIkCSUQ3ni4ZPq2140jfuhHJMs9HlkwylYxXF+53B9icsEghuaWMQOhvq24vmQQ1v0ITewpOwP0pby8UCwoQ1EY2/ichhhnpsURdP2LUUPrGkO5G/T9+pP/Lb5q2Q/hyLGUfw061Bs/HhVxdjl/mGz0bumUdn6OBYcwSPmvx962L7YgKqTEl91Hnt1RcPQNe+hzUKO6RDuoU1DGdouAErYFw6GQmF7T8YR7seI7VtH1V/EVeoossixRI2FG9hf/dCv2NJXv2q5QtGWMOh/vHoU+pe0KWbWubEpiegWtxgLWxTQcWuQNP0ntJBy1n2k8ke5ocXYgX1rkkm7gS9oCzlNgSFSoEjpk4G6pWD3pHHlJ/IeMpXMF/wtd7k8yzsHNoECIAMiHhhdCeNFXT88BwTKMKrMBgL2oG6r8Q7sO6NFE9v8zb+08mMPWW0ao7yQr1y21kTJiuWaTSC7NkitUcGk4iWhiNpzUiW798gh+6cyIU4FmVJIsQFLy5RYAmf0lrS7XJhgA4haOAS2fpWGj2HoFQGsaCNHoiEcs5drVfwrp1G6dGx9Mml7Hn3GPvbu37DyocesMDlt94yjkEFl3l0BEdjlgx4UY4ub/CNF8UTzTiKi+Es1vtZZjAoo6hGmlMKXM4O9ApM7WkVAD18qxxaxg3UQA4so6CbGVs7kit5AthUyi6BXoC141QSkPFTOFy1vX1Q4pDWhstJqigWVeaXRwfVN2lDMGFNsICf+9G+s/ecfIgv5jHUWyOszO8eFHSuiyFELULWKJjdB/LTb2cwOY8v8yLFDdgy7rBzTFcDrIWOmZLbho7ysaj5OAFELh8COZ0fbsGZNZJAZdt/jpFfYP7PXpfs7gYH4xvS8PfbAZ/HWr9ncZVebNzNnqy2Q06vjsYE8gzJEpq0tbSxscUyihtLEDSihqAJHWfC4abNQpSlV7tA2CNBGjmsiJ7YYo4cxXm7OqmgkKheHPMoBW/gFXmIGAMFhXT368bhGztPqV5Q1iWZWrN+wpih3SnzIcIrs2cHpr4WxHWRZZsP62/ts9T+/16p0WUKLmYCtVDqL9ixa5cMnrDdGAVJkvCANonFvAqq4wvd/Pfyw3bN8nH7wYYV9FbsaoJCJcT8+5jiWU+kKzWq8DkVk/MPaxnZ19ksuAHZ0xyNhdcK3mSV275kxFpNvrWMLtsrC24cXzUHSPOwZT9nSpz5h5clZm736dlsq1myKFIX78fLwUShsNUfk2DOWEETFIaEQ0bGhOsZHyQGFBBA7vkEIFrWQJwW1THOtLBRKIeHiDYR5WrOQP1VQUhp+l7KejkRdlH6fDITYDOlbQcWQNz9E+yv8i+HOp1g/IVMdJM7zvNo/3m8P/t+/DVsP3S2h7MIkIg3oOs4PKTTQ/v695imbHJuGbIQJsh8Q+k/mua792qOfs2fYZa5KzFqlIeUXSii4E1k7yhj29cxx8vb4yIhSrA1rERIyl5P5uaFwCHOwFhs2rA0/yxyH3B/Wv41lLXd00WZYFM0ffZu9+FffSW6VK+y76lBEKM0KBVzGcEZ2IX7IYsoR2SP1veLEWZs2ETbAYS+3A861oFxJ580tZQ4mBzSoisXMsisQckgqUGIYgUOtWbE2rm1jIFX1H++1o//hj61UQV1DHJOPpjUg7tFRS+bDpQ3R7oKMKi8YEi/a9P/f3rnFyHmedfyZ82Fnd/bg9dpx6rRy4tQNDUlaTCEXQCsk1EhcNL2gjSooXHHFDWq5RAIJcRAFqlZFQohU3DRNQ8uhJCW0EKWuApgmbZq4cWJ77Y3XO3ve2dk5z/D7v7PjbMLu93ozO1Rb3teaXe98873zzTPv/3ue9zn8H5jbtqgG+Z0L5+yrsRVil0UrrtSdFo0Sgygto8ZhjwNGfzosBM/nF1FWIp8u/G6UkPpu971eI29g1Ig+qht/9Ct88zfYi0ywD7kIXWD8hQVbmN20/H3TFp+6jZCFFmMP5lU0o1HVoI5Kujd3oZEYZc81bE0ZJZuDOBanuSNuHsIyPc9pDlWZafIZWR11zNg0tB0V1faRlC0NWP7KM7b2+S9ZYoNMG25gFPYjDEmEQD7fRVN7SDQtWHVg7FArWIiPY+bX7C/mXyZHdMFSiDKv9DQWWIfXDzQOubk50GfnZFlOhx6EMfZ92o11yH8swYR2+oXrNveDkm3+VM7Gpym8JTnZEeM6WgZidCw+JYOlCX53lUWCljjMo0aWTYa9Yk6uHJRXjYoM5Z+mCPZrf6n6xy0Ys7NsMCt//ZSVP/coHtmapWaOQ2uPLKh8EADxfXKDIgsHbSrgOWoMQNZEyyYpTv7HhVftT1Zewksat2kSJBqYmlkqJuSpHWgEEB5+EOZYIDc6UNKPFewkntESpU7NS1dt6XzJSj9TtJ89cRd3a/ZjLJYUzG05l5uJdsQxIjqHYfttBlqgt3CyemZoj9ml1Eru2Q6Aa0HVofzR+jokvCk+M8B6/S+/bOW/+TJVEMRSiTvOLV61Y2N4QgnCK6VOIRE5sVKKEyojhioNxRWT0NmfW79hX5h70a7gqZ4ZOeLaZlcgHj5Kv0QyXm/hKiNeEkB4+EEoz14WcKUwi6rkNdYz3L3zgPHKvP3gm9+3TrFj7733XrdHalAClcqSEg4olyowmBGMlh44zCNN7EAVI2VSbDpoJtVRiMk8jjzaeUIcUOkvfPqzlvm385YtjtlCc40yaAitisfhLBWNP6BFu3Vx+giA6kAc567l2N1gcnuBvN3Ply7Y8zSCOd4dIyc0TVUJtIc4dLp4PsViMNAIIDz8IDxGDOz6dMbG1iBMolx9EzqKE22Cx7C0tRdX7elvfN3Fq85+4P2Wo7q9SdCtiSewmIcAiQwcNVM5zENZMyKpEgW9Io1d9n/a9XbWaNzy2pzN/t6fWR7LQIXAVbJwOoBNjWaUzdCAMEfdpbQHVGwwqWRrZRBgLcS4QZX47+d++Lw9t7mMyYuMyZS5QYZMBpBPUFc4D5dGblB7NIDw8INwk4zte1dz9uIoHr5CwU7DR1GmUUpOcTWy/Unut39/6klbujJnH7j/Pvq4TLoMf5luIh5mK3SoR5MwhkzquKwBTNMUf2sfWHn8Kbv8539lR1bLVmmRyDeSxzQlWYCE7lJ9Aw9qk/IntBgySMgZwz5Q5UcqyVfPyHPsF/+JvNCvla6yJ0zg08rj/GHvSGaMiqwShB5ULZKGTWCgEUB4+EHYrCyRPVO0icWEHaXUqU7peyVPL78pslLW0Qx4RKfSI3bh/Lft5X9+1u6/4y4bv+MO1hpeQ9bPYTdHVXFfxRytUAqFQrTG8xds9rNftPLTz9g0gCOaTpU+BijggeufvV/CspQgyTkVk9YDfDH2jMBwO80uDe1h2wHwb1/5rm2N5m0K55eSzmto0Rn2gV3yd9cSDTuOJxYJD4RBl+kQMYNv9kGPR7y1O+Sb33e+77iLK/vihP4QRfTb+EMQ0ecPGkecrLLPgRfmCvmmiVLJfv3IKXv4I4/Yqd/6qE2deafVKR1KKXeM4twmBbGkcmKiEc3AXyg2pi4LkPXaC2Ww2NsEpV0VgVpps6C1J9Vn1HXqX+96+eoUH9KDCLYr59FGVI/+6H+79PVDKTvzUNQQeppgw7a7Q/052Ovxt55XEkAvE6c3iRxOK5iUCj2kN2pWfvQfqIp/2pLlRW5GKVvLJ+w48VIVD28pjsosysoZwZOqAmiV9Kv9XK1adT0sktljZPKk7FOzz9lX5i7Y6VbBNmWqRgx37RHHJZ2o4au30yKNGsOuB4x6bx3zXb9rmOOZxBusP+wgnCBX80qmZkeogm9DDTGf37JfwHz9zHs+aDM/9yEb/9NfoZYPoJKGkhKlPNgToxkIpCRHjNMAgb+1eN1+CcDE8C7KK1gDZJOi69bQ8wKThn5v/7+5E3ju4JuXZR9u6CGcHNueRtyU/aWrtFHSpl1upuaskCXTxIEiLpgMKOyQEL75+L/a2mNPWmvpOtQ2UAxTeZHB69mFL7QFqBTLiylmSDxQTWeURNqgwqGt3hKVLUxU3jc+ZfOwbX/61e/YxSWC8bCmXaEeM4ejJmoEEEbfJAIIWT3rhCGOkifZZHPYluuQlKx1KgI+OP4O+4Nj97jyoeSvPWxTv/lLLFToHYh/Vek/IR2kWsAYZMMCAoYdsTNpqRb9AiFrUu4Yizqm+iSGsOasO/5kZ7WtydCqyjxh9BerwLbza5MWFeD0kKbTiVKg/Qk6UO7Hx6hM4IbQgkYwrz0Yb9BFS7904fs2/kdfsmZpyfIE0+N0zXXkx+wBdUExPkcFkqkMZUZKBFf2i0zPKucCT/d5Uwk67UKbcWlzyf5w8SU7hxbN4DRNwZuzSXeonIh/I0b/c+39En2yvYdPkwRNiOwOuyZcBngn2fwl0HbLMsgAY4ZcyTZ7qA6coX//wMM2s1pydYrJn3/A8o98yDJn7maflbd1Fu6U2LL5rURmt4gJOCrLRk7BCoW5Y+yPdhty3audeFrUEqhINTV1Q5jlIcpApTTFyOZ2oNN74FRRqaASWARdPbZ4vtshyQ7P5ahKhiAVXv863aqeeMa6s1e4JlR3LmNVHC85BfpILUO1uwTx1XzGJsn3TMsBAxCFxDW0uG4qE/yd5Fg1PW3nAd5nrp63/y4v2ZnsDFKK26tUSozSjDSvTKOIEUCIbCNG0IQIR6U28xTrjRLMVlB7EbLQkQ1S1mgo8/oRqtMXl+2373rQPnnqvZaq0lsPjZK87S7LfOTDln3ofWhCAta4/3saqocOcbWIJobl7/aI0mYqaQJCIIYnhR6QJXDFXWExf+spAXD7twCoRzMhKqveKTGAqQC5dIeygDQ2oOwYB8S15y9b9bFvWuscHZLqMJuRhtYqYHq6sALJ02TBrPMweGBGsiRk869FV6k0pmsGM1s3gjr1jCJtynHcdXEiVPPV2Xn747WX7XWasL6rTjEv6Xwd6jYVT72OF3XKU4bS/0zuYnf9ETThrmLZ8eSP/Z4wi42o/g/kMVMYm7QJVNgCLGVNWrCd2UrZbAbzlL3Qg9AqfurET9qZ0RlboSlonY68xwDftYcetJN0Ryqevc+SxybQVOylAA9WHf6OFAnTTrE5kUrXacnpt4ClB0uan2+8pv+8nnPLE54Xdb2N43kUUJxNSvhgi4YrmxQypx59zsrfftaW5y/Z9NiUZaYmbYXKhRrJBmM4h5rUB44TQI8Rx4ux/6tS4yRypTGxQFF6RCGibanQlj1hkTzTWKsHyP/YvGH/snLF/m7uGl7POCEIek+RcaSCXFE6Khgv9jfFEqNGAGHQhE7/RC0SuTpnSGjuovluwAnYpZXYNJSBKri5SgOX2zDV1gjgV1jMp9IF+9WTP2GfuOPdmKCYi5uLbuoNNE+T/WL2xEkrvv9ey5x9j8Xffbs16Zg00iCwjeNDezFX28d/Re3QYOMm/plCz6XDPBwAj12lmMlEleOEuFxtIgvJNl7XeRrHXJyz5kuz1n7xVetcvEhEoUQhMECiLZmyWuTNFPeMWNBU5e72f26PSMW+qvLRos47q3ifVLLMYEqPVCzcoOQpAZVimc/7X8uL9gTdk761MmcVypvOZlSHWbV5mGjuLExBPtWiO3EZ+o2CLSGXqBFAGEDoBWGeu/kN3PB1FluGzRCOUjoZEdTmTDFKE1G0URZnA415nXDFCPU/v0hL6o8fu91+enwK8iLZlAAIp4acHXViby1ANCK2aeKPG3efhJ4f58aJGUvoQXffeBFgAn5XnAAlRUwmndtIkqcJSW59ZdXWllfoa7FpM89esMb6iq2vLhD6wFMJ1kYBXkyv521jeGfVolqU/tqfy4RtAzLnaCG5usH8cV4vhuwG56ujcR5zMon3U3jtNDbYNgLkWNYuA9QvLlyyJ+ZesyX6MU7mx+025rgmhje8qnk04CrsBQWAWoRNbYFYYMZp071hGEB4ACAsFo5GziLqhqjxo3bcuH1YxAVGXz2gRKM0qTmUNosDsiou/y36yI8VxmxmZsaeJAFcnhn18EvJzQ/JVNe5SVtWxmkxCijk8lcKZU3OD8AsgKsPoVDYgotCHC9dXsOPnsUp81N7P4FMnZP4rSFPoXQYr3YA0hej4IjOE+jkV1VOqIs7Kt0OUCZUbNuDm/up70M1oDKZ5RTI5O60F1eu2ePXf2hPQ5R8Ve+AGS2PaJobUhqG8UGGz7vpm9uxx0W8CLsh4qjkEz0ky0GG7/PdiuOl//4759LNVEPfV+z/OwgliK48hWgTdQlWMF5tsgXuLExv2eqKffT2e+xj77jHjkD3V91asrX6qh1FUySIpXXbNKhBa3UQpvJOtNOLoR5Upa7mp6hOjgMY9ljaa22/RG/LABACroa+k20wur/1g7+77A/djU7n957gHF4s1PNoFjC1uWa1qm5qH4cXVqzZWXHYEOP7fWoA5ysbdpkmMwuYmS0+ZwbPb4YyiwTe0YorKLz5jvv+z86Fte+TOSGAMIAQ54N0D9sr9nxiCpOJKnNPvDbKk2x0MngLaZ5JCOCXJ0/YI0dPsqekFrG7YRfqS3YaLtG4ACFthwOoi5bTjKIZFDDxAPVApDsefyr/RZqxg2bU3VAmYF8X9a2K/m93XSzT3twAiPnd3IAtxqMrYAK4OAB0OZx0qhKYr9bW7LHly/at8jV7hZuAKiN0PMu+MIczJ857tjBxW2TNqC3aICOAsP/t+aW4U1ZBE+4mr23zIMUiTVIQ28JElWk6zr8UnssaFQileBnzsmkP5CbsN6bvtocm30VOJQWyrHyVFoNoZuYhhiZHuKkvqMDRHuAEwJ5SVKkQAAKVbbpOabxBI9IHRe93BcYAVTqocNftK/l/C/O4yvXWmO8IGQhiOG1x4/gO5EtfK122Z9cXbIlrSKG54yJ1AvRJgIqPhjnEM0ryATmlinUWIcYaZOxcWG9nnqAJgyZ06yaJ9utgFoqvRR5GUfdpNHDCVFoEygFlmvib+u8V5PrHMbOOk2ODVf2FO+/HkUKSOL0bJjFns+zV0DF4K+toUZwfJDzLbFSbMPUN7GWBCnQ94Emjaex1P43RGjwmghxAvS5NyHXmMXUzug72n69RXPsUwHt88TV7pb1lefrHT5EFE6tQSU9O6BgkTdq3NAAfLiX+MRenilxKVSRpUb8NMAII9/rm/rdQd8oqaMId8mnJ7S93P6NFBowcNEloHtzfHEtlYAzjuSb7vgbNWJRAkiJf1DGDYgouxC+xoDN2Gm/p+3JTdnb0qN0HRfyp/JgLCdRh4NaCTzKHzFG390OLuS9Bzhqpxt6T/JJDhge/0Z3u2avkdY5xAxinlEigu051+3fXF+0/1+btEsxo55rLNk6TTj1aOILWMYcb7PsKeHyL1P81N+h1gclZB3httJ9uAoqd0pOUcEcMEuCexnUf+G382Lmw3sbp3BSwnyNGcMwgnB9376icMsqAcYPFL6RIMwokAuUWpJpK+9KeSs4bw5UvHgjF+FTDJ8r4Jhq0Ud2yDvsvZbDkMWlHAXIWJ8knj91JQ1AycyiCHUVTFlI0D0VzyrzU+hdTmgDXxGTsP+poPMUYBcjZtVWbJTh/vlyy79Ew5nXYsNvcELLkdo5ganZJq1NCgBq1aM9XUG9Cfm9xmSrVGnXeU+FXNwJ5ZPmNHRqXQ4hYZXXALgEBhEETsh+KvpNvw2vPe60Ap/2UNKI0kbSgnDNyjshETdFTUGG2lqPBVjhA4QweUpZ0NOqs0tgTE1Qtx9qK6fG8toMJzkXx2HKqcjNArz2ZtFAGjZUVGHiMsqMU2OqYqjWAV0M71nk0eAicnTz7OTJd1AAmj5MopXw5/i/t1pZZym/lqIp2XpUSun4RPiXoYhynmr5MAnpvi8pnA/AiEW6AfnHT1DmvqBvPACOA8P8AhL7v50etKX3XFw1RFN+AIMZP6buEQ31cN4io4VuCg5qTUe+tY77r857vuQl544DcSN80tue71ZuTLBOfonjT/OGPIIEggYOXQADhwcs0zBgksC8JBBDuS1zhxUECBy+BAMKDl2mYMUhgXxIIINyXuMKLgwQOXgIBhAcv0zBjkMC+JBBAuC9xhRcHCRy8BBRyjhy+eEdLPA8RI0lgOmpER6E48y1hmKi5djvmi+MNGseK/vS7XdH+nouWnuJkwx2Dysd3dYPG+Xzrp5+judd1eOOAe524/bwSJQYdvu940PnD+UECQQIeCQQQegQUDgcJDFsCAYTDlnCYP0jAI4EAQo+AwuEggWFLIIBw2BIO8wcJeCQQQOgRUDgcJDBsCQQQDlvCYf4gAY8EvHHCNwiIdp9p4Diip5rKN/9OZrLdrnDQOJQvTOk7vts17ee5waNQ+3m3/b92UPn63tH3/fvO98UBB53f9/4+/Oj8oAl9UgzHgwSGLIEAwiELOEwfJOCTQAChT0LheJDAkCUQQDhkAYfpgwR8Eggg9EkoHA8SGLIEAgiHLOAwfZCATwIBhD4JheNBAkOWgDdO6Hv/W4mDRM0hkluNm/O8hccxCcFt1PDVi/nqzW6+7x5v4jvfV2+3x7S3/HT0p+8R6N/yZEN4YZ+39aYc3sLjOew4py8O6PvI/fWzM97sWxO+Ofd7/H8AV2ADta67hDYAAAAASUVORK5CYII=;" vertex="1" parent="1">
          <mxGeometry x="70" y="230" width="45" height="45" as="geometry" />
        </mxCell>
        <mxCell id="vWYHXzRiQ3g4LQAD42oX-4" value="" style="rounded=1;whiteSpace=wrap;html=1;hachureGap=4;fontFamily=Architects Daughter;fontSource=https%3A%2F%2Ffonts.googleapis.com%2Fcss%3Ffamily%3DArchitects%2BDaughter;fillColor=none;" vertex="1" parent="1">
          <mxGeometry x="60" y="150" width="70" height="145" as="geometry" />
        </mxCell>
        <mxCell id="vWYHXzRiQ3g4LQAD42oX-5" value="" style="rounded=1;whiteSpace=wrap;html=1;hachureGap=4;fontFamily=Architects Daughter;fontSource=https%3A%2F%2Ffonts.googleapis.com%2Fcss%3Ffamily%3DArchitects%2BDaughter;fillColor=#d5e8d4;strokeColor=#82b366;" vertex="1" parent="1">
          <mxGeometry x="200" y="180" width="120" height="100" as="geometry" />
        </mxCell>
        <mxCell id="vWYHXzRiQ3g4LQAD42oX-6" value="&lt;b&gt;数据爬取&lt;/b&gt;" style="text;html=1;align=center;verticalAlign=middle;whiteSpace=wrap;rounded=0;fontFamily=Architects Daughter;fontSource=https%3A%2F%2Ffonts.googleapis.com%2Fcss%3Ffamily%3DArchitects%2BDaughter;fontSize=14;" vertex="1" parent="1">
          <mxGeometry x="230" y="185" width="60" height="30" as="geometry" />
        </mxCell>
        <mxCell id="vWYHXzRiQ3g4LQAD42oX-7" value="通过关键词搜索、爬取KOL公域数据" style="text;html=1;align=center;verticalAlign=middle;whiteSpace=wrap;rounded=0;fontFamily=Architects Daughter;fontSource=https%3A%2F%2Ffonts.googleapis.com%2Fcss%3Ffamily%3DArchitects%2BDaughter;" vertex="1" parent="1">
          <mxGeometry x="205" y="230" width="110" height="30" as="geometry" />
        </mxCell>
        <mxCell id="vWYHXzRiQ3g4LQAD42oX-10" value="" style="rounded=1;whiteSpace=wrap;html=1;hachureGap=4;fontFamily=Architects Daughter;fontSource=https%3A%2F%2Ffonts.googleapis.com%2Fcss%3Ffamily%3DArchitects%2BDaughter;fillColor=#dae8fc;strokeColor=#6c8ebf;" vertex="1" parent="1">
          <mxGeometry x="400" y="180" width="140" height="100" as="geometry" />
        </mxCell>
        <mxCell id="vWYHXzRiQ3g4LQAD42oX-11" value="&lt;b&gt;数据AI分析&lt;/b&gt;" style="text;html=1;align=center;verticalAlign=middle;whiteSpace=wrap;rounded=0;fontFamily=Architects Daughter;fontSource=https%3A%2F%2Ffonts.googleapis.com%2Fcss%3Ffamily%3DArchitects%2BDaughter;fontSize=14;" vertex="1" parent="1">
          <mxGeometry x="430" y="185" width="80" height="30" as="geometry" />
        </mxCell>
        <mxCell id="vWYHXzRiQ3g4LQAD42oX-12" value="对视频贴进行AI视频理解，对内容做分类" style="text;html=1;align=center;verticalAlign=middle;whiteSpace=wrap;rounded=0;fontFamily=Architects Daughter;fontSource=https%3A%2F%2Ffonts.googleapis.com%2Fcss%3Ffamily%3DArchitects%2BDaughter;" vertex="1" parent="1">
          <mxGeometry x="407.5" y="230" width="125" height="30" as="geometry" />
        </mxCell>
        <mxCell id="vWYHXzRiQ3g4LQAD42oX-13" value="" style="rounded=1;whiteSpace=wrap;html=1;hachureGap=4;fontFamily=Architects Daughter;fontSource=https%3A%2F%2Ffonts.googleapis.com%2Fcss%3Ffamily%3DArchitects%2BDaughter;fillColor=#dae8fc;strokeColor=#6c8ebf;" vertex="1" parent="1">
          <mxGeometry x="620" y="180" width="170" height="100" as="geometry" />
        </mxCell>
        <mxCell id="vWYHXzRiQ3g4LQAD42oX-14" value="&lt;b&gt;统计KOL各维度数据&lt;/b&gt;" style="text;html=1;align=center;verticalAlign=middle;whiteSpace=wrap;rounded=0;fontFamily=Architects Daughter;fontSource=https%3A%2F%2Ffonts.googleapis.com%2Fcss%3Ffamily%3DArchitects%2BDaughter;fontSize=14;" vertex="1" parent="1">
          <mxGeometry x="640" y="185" width="130" height="30" as="geometry" />
        </mxCell>
        <mxCell id="vWYHXzRiQ3g4LQAD42oX-15" value="统计计算KOL的各个维度数据" style="text;html=1;align=center;verticalAlign=middle;whiteSpace=wrap;rounded=0;fontFamily=Architects Daughter;fontSource=https%3A%2F%2Ffonts.googleapis.com%2Fcss%3Ffamily%3DArchitects%2BDaughter;" vertex="1" parent="1">
          <mxGeometry x="645" y="230" width="125" height="30" as="geometry" />
        </mxCell>
      </root>
    </mxGraphModel>
  </diagram>
</mxfile>
